<svg xmlns="http://www.w3.org/2000/svg" width="24" height="24"  fill="none"><g clip-path="url(#a)"><path fill="#fff" d="M4 15.75a.73.73 0 0 1-.534-.216A.73.73 0 0 1 3.25 15q0-.32.216-.534A.73.73 0 0 1 4 14.25h5.5q.319 0 .534.216a.73.73 0 0 1 .216.534q0 .32-.216.534a.73.73 0 0 1-.534.216zm0-4a.73.73 0 0 1-.534-.216A.73.73 0 0 1 3.25 11q0-.32.216-.534A.73.73 0 0 1 4 10.25h9.5q.319 0 .534.216a.73.73 0 0 1 .216.534q0 .32-.216.534a.73.73 0 0 1-.534.216zm0-4a.73.73 0 0 1-.534-.216A.73.73 0 0 1 3.25 7q0-.32.216-.535A.73.73 0 0 1 4 6.25h9.5q.319 0 .534.216A.73.73 0 0 1 14.25 7q0 .32-.216.535a.73.73 0 0 1-.534.215zm13 12a.73.73 0 0 1-.535-.216.73.73 0 0 1-.215-.534v-3.25H13a.73.73 0 0 1-.534-.216.73.73 0 0 1-.216-.534q0-.32.216-.534A.73.73 0 0 1 13 14.25h3.25V11q0-.319.216-.534A.73.73 0 0 1 17 10.25q.32 0 .535.216a.73.73 0 0 1 .215.534v3.25H21q.318 0 .534.216a.73.73 0 0 1 .216.534q0 .32-.216.534a.73.73 0 0 1-.534.216h-3.25V19q0 .318-.216.534a.73.73 0 0 1-.534.216"/></g><defs><clipPath id="a"><path fill="#fff" d="M0 0h24v24H0z"/></clipPath></defs></svg>