<svg xmlns="http://www.w3.org/2000/svg" width="24" height="24"  fill="none"><g clip-path="url(#a)"><path fill="#fff" d="M11.25 11.75V14q0 .32.216.534a.73.73 0 0 0 .534.216.73.73 0 0 0 .534-.216.73.73 0 0 0 .216-.534v-2.25H15a.73.73 0 0 0 .534-.216.73.73 0 0 0 .216-.534.73.73 0 0 0-.216-.534.73.73 0 0 0-.534-.216h-2.25V8a.73.73 0 0 0-.216-.535A.73.73 0 0 0 12 7.25a.73.73 0 0 0-.534.215.73.73 0 0 0-.216.535v2.25H9a.73.73 0 0 0-.534.216.73.73 0 0 0-.216.534q0 .32.216.534A.73.73 0 0 0 9 11.75zM4.308 18.5q-.758 0-1.283-.525a1.75 1.75 0 0 1-.525-1.283V5.308q0-.758.525-1.283T4.308 3.5h15.384q.758 0 1.283.525t.525 1.283v11.384q0 .758-.525 1.283t-1.283.525H15.5v1.096a.88.88 0 0 1-.259.645.88.88 0 0 1-.645.259H9.404a.88.88 0 0 1-.645-.259.88.88 0 0 1-.259-.645V18.5zm0-1.5h15.384a.3.3 0 0 0 .212-.096.3.3 0 0 0 .096-.212V5.308a.3.3 0 0 0-.096-.212.3.3 0 0 0-.212-.096H4.308a.3.3 0 0 0-.212.096.3.3 0 0 0-.096.212v11.384q0 .116.096.212a.3.3 0 0 0 .212.096"/></g><defs><clipPath id="a"><path fill="#fff" d="M0 0h24v24H0z"/></clipPath></defs></svg>