<svg xmlns="http://www.w3.org/2000/svg" width="24" height="24"  fill="none"><g clip-path="url(#a)"><path fill="#fff" d="M5.5 13.954 5.495 9.76q0-.747.53-1.277.531-.53 1.278-.53h9.385q.747 0 1.278.53.53.53.53 1.277l.004 4.193q0 .747-.53 1.278-.53.53-1.277.53H7.308q-.748 0-1.278-.53a1.74 1.74 0 0 1-.53-1.278m5.75-9.512V3.25q0-.32.216-.534a.73.73 0 0 1 .535-.216q.319 0 .534.216a.73.73 0 0 1 .216.534v1.192a.73.73 0 0 1-.216.535.73.73 0 0 1-.534.215.73.73 0 0 1-.535-.215.73.73 0 0 1-.215-.535m6.727.98.592-.593a.73.73 0 0 1 .522-.213.7.7 0 0 1 .532.213q.217.217.217.527a.72.72 0 0 1-.217.527l-.593.592a.72.72 0 0 1-.522.212.7.7 0 0 1-.531-.212.72.72 0 0 1-.218-.527q0-.31.218-.527m-6.726 15.02V19.25q0-.32.215-.535a.73.73 0 0 1 .535-.215q.319 0 .534.215a.73.73 0 0 1 .216.535v1.192a.73.73 0 0 1-.216.535.73.73 0 0 1-.534.215.73.73 0 0 1-.535-.215.73.73 0 0 1-.215-.535m7.323-1.506-.593-.592a.72.72 0 0 1-.212-.522.7.7 0 0 1 .213-.532.72.72 0 0 1 .527-.217q.309 0 .526.217l.593.593q.207.207.212.522a.7.7 0 0 1-.212.531.72.72 0 0 1-.527.218.72.72 0 0 1-.527-.218M4.96 6.475l-.592-.592a.73.73 0 0 1-.213-.523.7.7 0 0 1 .213-.531.72.72 0 0 1 .527-.218q.31 0 .527.218l.592.592q.208.208.213.522a.7.7 0 0 1-.213.532.72.72 0 0 1-.527.217.72.72 0 0 1-.527-.217m-.587 11.408.592-.593a.72.72 0 0 1 .522-.212.7.7 0 0 1 .532.212q.217.217.217.527a.72.72 0 0 1-.217.527l-.592.592a.73.73 0 0 1-.523.213.7.7 0 0 1-.531-.213.72.72 0 0 1-.218-.526q0-.31.218-.527m2.934-3.622h9.385a.3.3 0 0 0 .22-.086.3.3 0 0 0 .087-.221l-.005-4.193a.3.3 0 0 0-.086-.22.3.3 0 0 0-.221-.087H7.303a.3.3 0 0 0-.221.086.3.3 0 0 0-.087.221L7 13.954a.3.3 0 0 0 .087.22.3.3 0 0 0 .221.087"/></g><defs><clipPath id="a"><path fill="#fff" d="M0 0h24v24H0z"/></clipPath></defs></svg>