<svg xmlns="http://www.w3.org/2000/svg" width="24" height="24"  fill="none"><g clip-path="url(#a)"><path fill="#fff" d="M7 12.75h7a.73.73 0 0 0 .534-.216.73.73 0 0 0 .216-.534.73.73 0 0 0-.216-.534.73.73 0 0 0-.534-.216H7a.73.73 0 0 0-.535.216.73.73 0 0 0-.215.534q0 .32.215.534A.73.73 0 0 0 7 12.75m0-3h7a.73.73 0 0 0 .534-.216A.73.73 0 0 0 14.75 9a.73.73 0 0 0-.216-.534A.73.73 0 0 0 14 8.25H7a.73.73 0 0 0-.535.216A.73.73 0 0 0 6.25 9q0 .32.215.534A.73.73 0 0 0 7 9.75M4.308 19.5q-.758 0-1.283-.525a1.75 1.75 0 0 1-.525-1.283V6.308q0-.758.525-1.283T4.308 4.5h15.384q.758 0 1.283.525t.525 1.283v11.384q0 .758-.525 1.283t-1.283.525zm0-1.5h15.384a.3.3 0 0 0 .212-.096.3.3 0 0 0 .096-.212V6.308a.3.3 0 0 0-.096-.212.3.3 0 0 0-.212-.096H4.308a.3.3 0 0 0-.212.096.3.3 0 0 0-.096.212v11.384q0 .116.096.212a.3.3 0 0 0 .212.096"/></g><defs><clipPath id="a"><path fill="#fff" d="M0 0h24v24H0z"/></clipPath></defs></svg>