<svg xmlns="http://www.w3.org/2000/svg" width="24" height="24"  fill="none"><g clip-path="url(#a)"><path fill="#fff" d="M6.73 20.5H5.309q-.758 0-1.283-.525a1.75 1.75 0 0 1-.525-1.283V12q0-1.77.67-3.315a8.6 8.6 0 0 1 1.819-2.697A8.6 8.6 0 0 1 8.685 4.17 8.3 8.3 0 0 1 12 3.5q1.77 0 3.315.67a8.6 8.6 0 0 1 2.697 1.819 8.6 8.6 0 0 1 1.819 2.696Q20.5 10.23 20.5 12v6.692q0 .758-.525 1.283t-1.283.525H17.27q-.747 0-1.277-.53a1.74 1.74 0 0 1-.53-1.278v-3.461q0-.749.53-1.278.53-.53 1.277-.53H19V12q0-2.925-2.038-4.962T12 5 7.038 7.037 5 12v1.423h1.73q.75 0 1.278.53.53.53.53 1.278v3.461q0 .749-.53 1.278-.53.53-1.277.53m0-5.577H5v3.77q0 .115.096.21a.3.3 0 0 0 .212.097H6.73a.3.3 0 0 0 .221-.087.3.3 0 0 0 .087-.22V15.23a.3.3 0 0 0-.087-.222.3.3 0 0 0-.221-.086m10.232.308v3.461a.3.3 0 0 0 .086.221.3.3 0 0 0 .221.087h1.423a.3.3 0 0 0 .212-.096.3.3 0 0 0 .096-.212v-3.769h-1.73a.3.3 0 0 0-.222.086.3.3 0 0 0-.086.222M6.73 14.923h.308H5z"/></g><defs><clipPath id="a"><path fill="#fff" d="M0 0h24v24H0z"/></clipPath></defs></svg>