<svg xmlns="http://www.w3.org/2000/svg" width="24" height="24"  fill="none"><g clip-path="url(#a)"><path fill="#fff" d="M12 21.5q1.77 0 3.315-.669a8.6 8.6 0 0 0 2.697-1.82 8.6 8.6 0 0 0 1.819-2.695Q20.5 14.77 20.5 13t-.67-3.315a8.6 8.6 0 0 0-1.818-2.696 8.6 8.6 0 0 0-2.697-1.82A8.3 8.3 0 0 0 12 4.5h-.265l1.08-1.08a.7.7 0 0 0 .218-.52.76.76 0 0 0-.217-.534.75.75 0 0 0-1.07-.016L9.48 4.608a.86.86 0 0 0-.256.633.86.86 0 0 0 .256.632l2.248 2.258q.223.232.53.225a.77.77 0 0 0 .54-.24.76.76 0 0 0 .216-.535.7.7 0 0 0-.217-.52l-1.061-1.06H12q2.925 0 4.962 2.037T19 13t-2.038 4.963T12 20q-2.708 0-4.692-1.797-1.985-1.796-2.267-4.49a.82.82 0 0 0-.264-.508A.75.75 0 0 0 4.25 13a.77.77 0 0 0-.527.197.54.54 0 0 0-.192.486q.273 3.33 2.698 5.574T12 21.5"/></g><defs><clipPath id="a"><path fill="#fff" d="M0 0h24v24H0z"/></clipPath></defs></svg>