<svg xmlns="http://www.w3.org/2000/svg" width="24" height="24"  fill="none"><g clip-path="url(#a)"><path fill="#fff" d="M21.5 6.308v11.384q0 .746-.531 1.277a1.74 1.74 0 0 1-1.277.531H15.45a.73.73 0 0 1-.534-.216.73.73 0 0 1-.216-.534q0-.32.216-.535A.73.73 0 0 1 15.45 18h4.242a.3.3 0 0 0 .221-.087.3.3 0 0 0 .087-.22V6.307a.3.3 0 0 0-.087-.221.3.3 0 0 0-.22-.087H4.307a.3.3 0 0 0-.221.087.3.3 0 0 0-.087.22v.314q0 .319-.216.534a.73.73 0 0 1-.534.216.73.73 0 0 1-.534-.216.73.73 0 0 1-.216-.534v-.313q0-.746.531-1.277A1.74 1.74 0 0 1 4.308 4.5h15.384q.746 0 1.277.531t.531 1.277M7.902 19.5a.79.79 0 0 1-.525-.19.82.82 0 0 1-.279-.493 4.4 4.4 0 0 0-1.326-2.612 4.7 4.7 0 0 0-2.655-1.303.63.63 0 0 1-.453-.272.9.9 0 0 1-.164-.534q0-.319.217-.534a.57.57 0 0 1 .506-.175q2.13.242 3.628 1.749 1.5 1.506 1.747 3.635a.59.59 0 0 1-.167.517.7.7 0 0 1-.529.212m3.887 0q-.33 0-.54-.227a.98.98 0 0 1-.251-.565q-.293-3.114-2.492-5.286-2.2-2.172-5.323-2.43a.71.71 0 0 1-.494-.256.8.8 0 0 1-.189-.525q0-.318.21-.542a.58.58 0 0 1 .507-.192q3.747.258 6.374 2.875 2.628 2.617 2.917 6.363a.68.68 0 0 1-.185.557.7.7 0 0 1-.534.228m-8.27 0a.98.98 0 0 1-.724-.296.99.99 0 0 1-.295-.724q0-.428.296-.723a.99.99 0 0 1 .724-.296q.428.001.723.296a.99.99 0 0 1 .295.724.98.98 0 0 1-.295.724.99.99 0 0 1-.724.295"/></g><defs><clipPath id="a"><path fill="#fff" d="M0 0h24v24H0z"/></clipPath></defs></svg>