<svg xmlns="http://www.w3.org/2000/svg" width="24" height="24"  fill="none"><g clip-path="url(#a)"><path fill="#fff" d="M5.308 19.5q-.758 0-1.283-.525a1.75 1.75 0 0 1-.525-1.283V6.308q0-.758.525-1.283T5.308 4.5h13.384q.758 0 1.283.525t.525 1.283v11.384q0 .758-.525 1.283t-1.283.525zm0-1.5h13.384a.3.3 0 0 0 .212-.096.3.3 0 0 0 .096-.212V6.308a.3.3 0 0 0-.096-.212.3.3 0 0 0-.212-.096H5.308a.3.3 0 0 0-.212.096.3.3 0 0 0-.096.212v11.384q0 .116.096.212a.3.3 0 0 0 .212.096m2.077-3.154H10q.435 0 .736-.302.303-.302.303-.736V13.5a.417.417 0 0 0-.43-.429h-.334a.42.42 0 0 0-.308.121.42.42 0 0 0-.12.308.15.15 0 0 1-.049.106.15.15 0 0 1-.106.048h-2a.15.15 0 0 1-.106-.048.15.15 0 0 1-.048-.106v-3q0-.058.048-.106a.15.15 0 0 1 .106-.048h2q.058 0 .106.048a.15.15 0 0 1 .048.106q0 .186.121.308.122.12.308.12h.335q.187 0 .307-.12a.42.42 0 0 0 .122-.308v-.308q0-.435-.303-.736A1 1 0 0 0 10 9.154H7.385q-.435 0-.737.302a1 1 0 0 0-.302.736v3.616q0 .435.302.736.302.303.737.302m9.23-5.692H14q-.435 0-.736.302a1 1 0 0 0-.303.736v3.616q0 .435.303.736.3.303.736.302h2.615q.435 0 .737-.302t.302-.736V13.5a.42.42 0 0 0-.121-.308.42.42 0 0 0-.308-.12h-.335a.416.416 0 0 0-.428.428.15.15 0 0 1-.049.106.15.15 0 0 1-.105.048h-2a.15.15 0 0 1-.106-.048.15.15 0 0 1-.048-.106v-3q0-.058.048-.106a.15.15 0 0 1 .106-.048h2q.057 0 .105.048a.15.15 0 0 1 .049.106q0 .186.12.308.122.12.308.12h.335q.186 0 .308-.12a.42.42 0 0 0 .12-.308v-.308q0-.435-.301-.736a1 1 0 0 0-.737-.302"/></g><defs><clipPath id="a"><path fill="#fff" d="M0 0h24v24H0z"/></clipPath></defs></svg>