<svg width="25" height="24" viewBox="0 0 25 24" fill="none" xmlns="http://www.w3.org/2000/svg">
<path d="M12.4068 13.2905L8.33375 9.21723C8.19525 9.0789 8.02117 9.00807 7.8115 9.00473C7.602 9.00157 7.42475 9.0724 7.27975 9.21723C7.13492 9.36223 7.0625 9.5379 7.0625 9.74423C7.0625 9.95057 7.13492 10.1262 7.27975 10.2712L11.774 14.7655C11.8677 14.859 11.9664 14.925 12.0703 14.9635C12.1741 15.002 12.2863 15.0212 12.4068 15.0212C12.5273 15.0212 12.6394 15.002 12.7433 14.9635C12.8471 14.925 12.9458 14.859 13.0395 14.7655L17.5338 10.2712C17.6721 10.1327 17.7429 9.95865 17.7463 9.74898C17.7494 9.53948 17.6786 9.36223 17.5338 9.21723C17.3888 9.0724 17.2131 8.99998 17.0068 8.99998C16.8004 8.99998 16.6248 9.0724 16.4798 9.21723L12.4068 13.2905Z" fill="white"/>
</svg>
