<svg xmlns="http://www.w3.org/2000/svg" width="24" height="24"  fill="none"><g clip-path="url(#a)"><path fill="#fff" d="m12.039 13.615-2.735 2.734q.21.375.299.796.09.42.09.855 0 1.506-1.074 2.58-1.072 1.074-2.58 1.073-1.506 0-2.58-1.073T2.385 18t1.073-2.58q1.074-1.074 2.58-1.074.435 0 .855.089.42.09.796.3L10.423 12 7.689 9.265q-.375.21-.796.299-.42.09-.854.09-1.507 0-2.581-1.074Q2.385 7.508 2.385 6q0-1.506 1.073-2.58t2.58-1.074 2.58 1.073 1.074 2.58q0 .435-.09.855-.088.42-.298.795l11.18 11.181q.551.55.247 1.245-.304.693-1.074.694-.222 0-.433-.09a1.2 1.2 0 0 1-.37-.249zm2.769-2.77L13.192 9.23l5.662-5.661a1.18 1.18 0 0 1 .808-.339q.766 0 1.062.702t-.255 1.252zm-8.77-2.692q.89 0 1.522-.632.632-.633.632-1.522 0-.888-.632-1.52a2.08 2.08 0 0 0-1.521-.633q-.89 0-1.522.632A2.07 2.07 0 0 0 3.885 6q0 .89.632 1.522.633.632 1.522.632m6 4.096a.24.24 0 0 0 .175-.075.24.24 0 0 0 0-.35.24.24 0 0 0-.35 0 .24.24 0 0 0 0 .35.24.24 0 0 0 .176.075m-6 7.904q.89 0 1.522-.632.632-.634.632-1.521 0-.89-.632-1.522a2.07 2.07 0 0 0-1.521-.632q-.89 0-1.522.632A2.07 2.07 0 0 0 3.885 18q0 .89.632 1.522.633.632 1.522.632"/></g><defs><clipPath id="a"><path fill="#fff" d="M0 0h24v24H0z"/></clipPath></defs></svg>