<svg xmlns="http://www.w3.org/2000/svg" viewBox="0 0 23 23"><g clip-path="url(#a)"><path d="M11.2 12.184 6.467 16.92a.678.678 0 0 1-.488.198.66.66 0 0 1-.496-.198.67.67 0 0 1-.203-.492.67.67 0 0 1 .203-.492l4.735-4.734-4.735-4.735a.678.678 0 0 1-.198-.488.66.66 0 0 1 .198-.496.67.67 0 0 1 .492-.203.67.67 0 0 1 .492.203l4.735 4.735 4.734-4.735a.678.678 0 0 1 .488-.198.66.66 0 0 1 .496.198.67.67 0 0 1 .203.492.67.67 0 0 1-.203.492L12.184 11.2l4.735 4.734c.13.13.195.292.198.488a.66.66 0 0 1-.198.496.67.67 0 0 1-.492.203.67.67 0 0 1-.492-.203l-4.734-4.735Z"/></g><defs><clipPath id="a"><path fill="#fff" d="M0 0h22.4v22.4H0z"/></clipPath></defs></svg>
