<svg xmlns="http://www.w3.org/2000/svg" width="24" height="24"  fill="none"><g clip-path="url(#a)"><path fill="#fff" d="m12 13.054-5.072 5.074a.73.73 0 0 1-.523.212.7.7 0 0 1-.532-.212.72.72 0 0 1-.217-.527q0-.31.218-.527L10.947 12 5.874 6.929a.73.73 0 0 1-.213-.523.7.7 0 0 1 .213-.532.72.72 0 0 1 .527-.217q.308 0 .527.218L12 10.947l5.073-5.073a.73.73 0 0 1 .522-.213.7.7 0 0 1 .532.213q.216.217.217.527a.72.72 0 0 1-.217.527L13.054 12l5.074 5.073q.207.207.212.522a.7.7 0 0 1-.212.532.72.72 0 0 1-.527.217.72.72 0 0 1-.527-.217z"/></g><defs><clipPath id="a"><path fill="#fff" d="M0 0h24v24H0z"/></clipPath></defs></svg>