<svg xmlns="http://www.w3.org/2000/svg" width="24" height="24"  fill="none"><g clip-path="url(#a)"><path fill="#fff" d="M3.5 17.6v-3.604q0-.383.26-.641a.88.88 0 0 1 .644-.259H10q.384 0 .644.259a.87.87 0 0 1 .26.642V17.6q0 .383-.26.641A.88.88 0 0 1 10 18.5H4.404a.88.88 0 0 1-.644-.259.87.87 0 0 1-.26-.642m9.596 0v-3.604a.87.87 0 0 1 .26-.641.88.88 0 0 1 .644-.259h5.596q.383 0 .644.259a.87.87 0 0 1 .26.642V17.6q0 .383-.26.641a.88.88 0 0 1-.644.259H14a.88.88 0 0 1-.644-.259.87.87 0 0 1-.26-.642M3.5 10.002V6.4q0-.383.26-.641a.88.88 0 0 1 .644-.259H10q.384 0 .644.259a.87.87 0 0 1 .26.642v3.603a.87.87 0 0 1-.26.641.88.88 0 0 1-.644.259H4.404a.88.88 0 0 1-.644-.259.87.87 0 0 1-.26-.642m9.596 0V6.4q0-.383.26-.641A.88.88 0 0 1 14 5.5h5.596q.383 0 .644.259a.87.87 0 0 1 .26.642v3.603a.87.87 0 0 1-.26.641.88.88 0 0 1-.644.259H14a.88.88 0 0 1-.644-.259.87.87 0 0 1-.26-.642"/></g><defs><clipPath id="a"><path fill="#fff" d="M0 0h24v24H0z"/></clipPath></defs></svg>