<svg xmlns="http://www.w3.org/2000/svg" width="24" height="24"  fill="none"><g clip-path="url(#a)"><path fill="#fff" d="M7 15.25h10a.73.73 0 0 0 .535-.216.73.73 0 0 0 .215-.534.73.73 0 0 0-.215-.534.73.73 0 0 0-.535-.216H7a.73.73 0 0 0-.535.216.73.73 0 0 0-.215.534q0 .32.215.534A.73.73 0 0 0 7 15.25m0-3h10a.73.73 0 0 0 .535-.216.73.73 0 0 0 .215-.534.73.73 0 0 0-.215-.534.73.73 0 0 0-.535-.216H7a.73.73 0 0 0-.535.216.73.73 0 0 0-.215.534q0 .32.215.534A.73.73 0 0 0 7 12.25m0-3h10a.73.73 0 0 0 .535-.216.73.73 0 0 0 .215-.534.73.73 0 0 0-.215-.535A.73.73 0 0 0 17 7.75H7a.73.73 0 0 0-.535.215.73.73 0 0 0-.215.535q0 .32.215.534A.73.73 0 0 0 7 9.25M4.308 19q-.758 0-1.283-.525a1.75 1.75 0 0 1-.525-1.283V5.808q0-.758.525-1.283T4.308 4h15.384q.758 0 1.283.525t.525 1.283v14.546q0 .607-.555.841t-.982-.193L17.963 19zM18.6 17.5l1.4 1.385V5.808a.3.3 0 0 0-.096-.212.3.3 0 0 0-.212-.096H4.308a.3.3 0 0 0-.212.096.3.3 0 0 0-.096.212v11.384q0 .116.096.212a.3.3 0 0 0 .212.096z"/></g><defs><clipPath id="a"><path fill="#fff" d="M0 0h24v24H0z"/></clipPath></defs></svg>