<svg xmlns="http://www.w3.org/2000/svg" width="24" height="24"  fill="none"><g clip-path="url(#a)"><path fill="#E8EAED" d="M7.308 20.5a1.74 1.74 0 0 1-1.277-.531 1.74 1.74 0 0 1-.531-1.277V6h-.25a.73.73 0 0 1-.534-.216.73.73 0 0 1-.216-.535q0-.318.216-.534A.73.73 0 0 1 5.25 4.5H9q0-.368.259-.626a.85.85 0 0 1 .625-.259h4.232q.367 0 .625.259A.85.85 0 0 1 15 4.5h3.75q.318 0 .534.215a.73.73 0 0 1 .216.535q0 .319-.216.534A.73.73 0 0 1 18.75 6h-.25v12.692q0 .746-.531 1.277a1.74 1.74 0 0 1-1.277.53zM17 6H7v12.692a.3.3 0 0 0 .087.221.3.3 0 0 0 .22.087h9.385a.3.3 0 0 0 .221-.087.3.3 0 0 0 .087-.221zm-6.846 11q.319 0 .534-.216a.73.73 0 0 0 .216-.534v-7.5a.73.73 0 0 0-.216-.535.73.73 0 0 0-.535-.215.73.73 0 0 0-.534.215.73.73 0 0 0-.215.535v7.5q0 .318.216.534a.73.73 0 0 0 .534.216m3.693 0q.318 0 .534-.216a.73.73 0 0 0 .215-.534v-7.5a.73.73 0 0 0-.216-.535.73.73 0 0 0-.534-.215.73.73 0 0 0-.534.215.73.73 0 0 0-.216.535v7.5q0 .318.216.534a.73.73 0 0 0 .535.216"/></g><defs><clipPath id="a"><path fill="#fff" d="M0 0h24v24H0z"/></clipPath></defs></svg>