<svg xmlns="http://www.w3.org/2000/svg" width="24" height="24"  fill="none"><g clip-path="url(#a)"><path fill="#fff" d="M3.308 15.5q-.714 0-1.26-.547-.549-.547-.548-1.26v-1.616q0-.157.04-.338.04-.18.09-.335L4.498 4.64q.215-.48.72-.81A1.9 1.9 0 0 1 6.273 3.5h10.516v12l-5.818 5.767a1.2 1.2 0 0 1-.69.356 1.2 1.2 0 0 1-.752-.135 1.18 1.18 0 0 1-.527-.546 1.06 1.06 0 0 1-.071-.733l1.077-4.709zm11.98-.639V5H6.27q-.105 0-.216.058a.37.37 0 0 0-.168.192L3 12v1.692a.3.3 0 0 0 .087.222.3.3 0 0 0 .22.086h8.597l-1.254 5.48zM19.693 3.5q.746 0 1.277.531t.531 1.277v8.384q0 .746-.531 1.277a1.74 1.74 0 0 1-1.277.531h-2.904V14h2.904a.3.3 0 0 0 .221-.086.3.3 0 0 0 .087-.222V5.308a.3.3 0 0 0-.087-.221.3.3 0 0 0-.22-.087h-2.905V3.5z"/></g><defs><clipPath id="a"><path fill="#fff" d="M0 0h24v24H0z"/></clipPath></defs></svg>