<svg xmlns="http://www.w3.org/2000/svg" width="24" height="24"  fill="none"><g clip-path="url(#a)"><path fill="#fff" d="M5.25 14.75a.73.73 0 0 1-.534-.216A.73.73 0 0 1 4.5 14q0-.32.216-.534a.73.73 0 0 1 .534-.216h13.5q.318 0 .534.216A.73.73 0 0 1 19.5 14q0 .32-.216.534a.73.73 0 0 1-.534.216zm0-4a.73.73 0 0 1-.534-.216A.73.73 0 0 1 4.5 10q0-.32.216-.534a.73.73 0 0 1 .534-.216h13.5q.318 0 .534.216A.73.73 0 0 1 19.5 10q0 .32-.216.534a.73.73 0 0 1-.534.216z"/></g><defs><clipPath id="a"><path fill="#fff" d="M0 0h24v24H0z"/></clipPath></defs></svg>