<svg xmlns="http://www.w3.org/2000/svg" width="24" height="24"  fill="none"><g clip-path="url(#a)"><path fill="#fff" d="m8.644 15.923 4.656-1.412a1.84 1.84 0 0 0 .757-.454q.315-.315.454-.757l1.414-4.658a.43.43 0 0 0-.122-.447.43.43 0 0 0-.447-.118L10.7 9.489a1.84 1.84 0 0 0-.757.454q-.315.315-.454.757l-1.414 4.658a.43.43 0 0 0 .122.447q.196.193.447.118m3.354-2.615q-.546 0-.926-.383a1.27 1.27 0 0 1-.38-.927q0-.546.383-.926.381-.38.927-.38t.926.383q.38.381.38.927t-.383.926q-.381.38-.927.38m.004 8.192a9.3 9.3 0 0 1-3.706-.748 9.6 9.6 0 0 1-3.016-2.03 9.6 9.6 0 0 1-2.032-3.016 9.25 9.25 0 0 1-.748-3.704q0-1.972.748-3.706a9.6 9.6 0 0 1 2.03-3.016 9.6 9.6 0 0 1 3.016-2.032 9.25 9.25 0 0 1 3.704-.748q1.972 0 3.706.748a9.6 9.6 0 0 1 3.017 2.03 9.6 9.6 0 0 1 2.03 3.016 9.25 9.25 0 0 1 .749 3.704q0 1.972-.748 3.706a9.6 9.6 0 0 1-2.03 3.017 9.6 9.6 0 0 1-3.016 2.03 9.25 9.25 0 0 1-3.704.749M12 20q3.335 0 5.667-2.333Q20 15.335 20 12t-2.333-5.667Q15.335 4 12 4T6.333 6.333Q4 8.666 4 12q0 3.335 2.333 5.667Q8.666 20 12 20"/></g><defs><clipPath id="a"><path fill="#fff" d="M0 0h24v24H0z"/></clipPath></defs></svg>