<svg xmlns="http://www.w3.org/2000/svg" width="24" height="24"  fill="none"><g clip-path="url(#a)"><path fill="#fff" fill-rule="evenodd" d="M11.58 1.807a2.996 2.996 0 0 1 3.413 2.76 3.004 3.004 0 0 1-2.242 3.115v.705l7.18 5.026a.75.75 0 0 1-.431 1.364H18v3a1 1 0 0 1-1 1h-2v3h-1v-1h-1v1h-1v-1h-1v1h-1v-1H9v1H8v-1H7v1H6v-7H4.5a.75.75 0 0 1-.43-1.364l7.18-5.026v-1.36a.75.75 0 0 1 .75-.75 1.501 1.501 0 0 0 .593-2.878 1.5 1.5 0 0 0-.803-.107 1.49 1.49 0 0 0-1.206.99.75.75 0 1 1-1.416-.495 3 3 0 0 1 2.412-1.98M15 14.777h1.5v2.5H15zm2.12-1.5H6.88L12 9.692zm-9.62 1.5h6v4.5h-6z" clip-rule="evenodd"/></g><defs><clipPath id="a"><path fill="#fff" d="M0 0h24v24H0z"/></clipPath></defs></svg>