<svg xmlns="http://www.w3.org/2000/svg" width="24" height="24"  fill="none"><g clip-path="url(#a)"><path fill="#fff" d="M12 20.75a.73.73 0 0 1-.534-.216.73.73 0 0 1-.216-.534v-4q0-.319.216-.534A.73.73 0 0 1 12 15.25q.32 0 .534.216a.73.73 0 0 1 .216.534v1.25H20q.318 0 .534.216a.73.73 0 0 1 .216.534q0 .32-.216.535a.73.73 0 0 1-.534.215h-7.25V20q0 .318-.216.534a.73.73 0 0 1-.534.216m-8-2a.73.73 0 0 1-.534-.216A.73.73 0 0 1 3.25 18q0-.32.216-.535A.73.73 0 0 1 4 17.25h4q.319 0 .534.216A.73.73 0 0 1 8.75 18q0 .32-.216.535A.73.73 0 0 1 8 18.75zm4-4a.73.73 0 0 1-.535-.216A.73.73 0 0 1 7.25 14v-1.25H4a.73.73 0 0 1-.534-.216A.73.73 0 0 1 3.25 12q0-.32.216-.534A.73.73 0 0 1 4 11.25h3.25V10q0-.319.216-.534A.73.73 0 0 1 8 9.25q.32 0 .534.216A.73.73 0 0 1 8.75 10v4q0 .319-.216.534A.73.73 0 0 1 8 14.75m4-2a.73.73 0 0 1-.534-.216.73.73 0 0 1-.216-.534q0-.32.216-.534A.73.73 0 0 1 12 11.25h8q.318 0 .534.216a.73.73 0 0 1 .216.534q0 .32-.216.534a.73.73 0 0 1-.534.216zm4-4a.73.73 0 0 1-.534-.216A.73.73 0 0 1 15.25 8V4q0-.318.216-.534A.73.73 0 0 1 16 3.25q.32 0 .535.216A.73.73 0 0 1 16.75 4v1.25H20q.318 0 .534.216A.73.73 0 0 1 20.75 6q0 .32-.216.535A.73.73 0 0 1 20 6.75h-3.25V8q0 .319-.216.534A.73.73 0 0 1 16 8.75m-12-2a.73.73 0 0 1-.534-.216A.73.73 0 0 1 3.25 6q0-.32.216-.535A.73.73 0 0 1 4 5.25h8q.319 0 .534.216A.73.73 0 0 1 12.75 6q0 .32-.216.535A.73.73 0 0 1 12 6.75z"/></g><defs><clipPath id="a"><path fill="#fff" d="M0 0h24v24H0z"/></clipPath></defs></svg>