<svg xmlns="http://www.w3.org/2000/svg" width="24" height="24"  fill="none"><g clip-path="url(#a)"><path fill="#fff" d="M12 21.5a8.3 8.3 0 0 1-3.315-.669 8.6 8.6 0 0 1-2.697-1.82 8.6 8.6 0 0 1-1.819-2.695A8.3 8.3 0 0 1 3.5 13q0-1.77.67-3.315a8.6 8.6 0 0 1 1.819-2.696 8.6 8.6 0 0 1 2.696-1.82A8.3 8.3 0 0 1 12 4.5h.265l-1.08-1.08a.7.7 0 0 1-.218-.52.76.76 0 0 1 .217-.534.75.75 0 0 1 1.07-.016l2.267 2.258a.86.86 0 0 1 .256.633.86.86 0 0 1-.256.632l-2.248 2.258a.68.68 0 0 1-.53.225.77.77 0 0 1-.54-.24.76.76 0 0 1-.216-.535q0-.301.217-.52l1.061-1.06H12Q9.075 6 7.038 8.037T5 13t2.037 4.963T12 20q2.708 0 4.692-1.797 1.986-1.796 2.267-4.49a.82.82 0 0 1 .264-.508.75.75 0 0 1 .527-.205.77.77 0 0 1 .527.197.54.54 0 0 1 .192.486q-.273 3.33-2.698 5.574T12 21.5"/></g><defs><clipPath id="a"><path fill="#fff" d="M0 0h24v24H0z"/></clipPath></defs></svg>