<svg xmlns="http://www.w3.org/2000/svg" width="24" height="24"  fill="none"><g clip-path="url(#a)"><path fill="#fff" fill-rule="evenodd" d="m12 7.528-.772-.464-4.186-2.51L2.5 7.58v6.307l9.5 5.18 9.5-5.18V7.58l-4.542-3.028-4.186 2.511zm0-1.75L7.814 3.266a1.5 1.5 0 0 0-1.604.04L1.668 6.332A1.5 1.5 0 0 0 1 7.581v6.307c0 .548.3 1.054.782 1.316l9.5 5.182a1.5 1.5 0 0 0 1.436 0l9.5-5.182c.482-.262.782-.768.782-1.316V7.581c0-.502-.25-.97-.668-1.248L17.79 3.305a1.5 1.5 0 0 0-1.604-.039zm3.5 6.25a1.25 1.25 0 1 1-2.5 0 1.25 1.25 0 0 1 2.5 0M7 7.778a.75.75 0 0 0-.75.75v1.5h-1.5a.75.75 0 0 0 0 1.5h1.5v1.5a.75.75 0 0 0 1.5 0v-1.5h1.5a.75.75 0 0 0 0-1.5h-1.5v-1.5a.75.75 0 0 0-.75-.75m10.75 3a1.25 1.25 0 1 0 0-2.5 1.25 1.25 0 0 0 0 2.5" clip-rule="evenodd"/></g><defs><clipPath id="a"><path fill="#fff" d="M0 0h24v24H0z"/></clipPath></defs></svg>