<svg xmlns="http://www.w3.org/2000/svg" width="24" height="24"  fill="none"><g clip-path="url(#a)"><path fill="#fff" fill-rule="evenodd" d="M1 7.804c0-.502.25-.97.668-1.248L6.21 3.528a1.5 1.5 0 0 1 1.604-.04L12 6.002l4.186-2.512a1.5 1.5 0 0 1 1.604.039l4.542 3.028A1.5 1.5 0 0 1 23 7.804v6.307c0 .549-.3 1.054-.782 1.316l-9.5 5.182a1.5 1.5 0 0 1-1.436 0l-9.5-5.182A1.5 1.5 0 0 1 1 14.11zM16 12.5a1.5 1.5 0 1 1-3 0 1.5 1.5 0 0 1 3 0m-9-5a1 1 0 0 0-1 1V10H4.5a1 1 0 0 0 0 2H6v1.5a1 1 0 1 0 2 0V12h1.5a1 1 0 1 0 0-2H8V8.5a1 1 0 0 0-1-1M18.5 11A1.5 1.5 0 1 0 18.499 8a1.5 1.5 0 0 0 .001 3" clip-rule="evenodd"/></g><defs><clipPath id="a"><path fill="#fff" d="M0 0h24v24H0z"/></clipPath></defs></svg>