<svg xmlns="http://www.w3.org/2000/svg" width="24" height="24"  fill="none"><g clip-path="url(#a)"><path fill="#fff" d="M8.692 10.5H5.308q-.758 0-1.283-.525A1.75 1.75 0 0 1 3.5 8.692V5.308q0-.758.525-1.283T5.308 3.5h3.384q.758 0 1.283.525t.525 1.283v3.384q0 .758-.525 1.283t-1.283.525M5.308 9h3.384a.3.3 0 0 0 .222-.086A.3.3 0 0 0 9 8.692V5.308a.3.3 0 0 0-.086-.221A.3.3 0 0 0 8.692 5H5.308a.3.3 0 0 0-.221.087.3.3 0 0 0-.087.22v3.385a.3.3 0 0 0 .087.222.3.3 0 0 0 .22.086m3.384 11.5H5.308q-.758 0-1.283-.525a1.75 1.75 0 0 1-.525-1.283v-3.384q0-.758.525-1.283t1.283-.525h3.384q.758 0 1.283.525t.525 1.283v3.384q0 .758-.525 1.283t-1.283.525M5.308 19h3.384a.3.3 0 0 0 .222-.087.3.3 0 0 0 .086-.22v-3.385a.3.3 0 0 0-.086-.222.3.3 0 0 0-.222-.086H5.308a.3.3 0 0 0-.221.086.3.3 0 0 0-.087.222v3.384a.3.3 0 0 0 .087.221.3.3 0 0 0 .22.087m13.384-8.5h-3.384q-.758 0-1.283-.525a1.75 1.75 0 0 1-.525-1.283V5.308q0-.758.525-1.283t1.283-.525h3.384q.758 0 1.283.525t.525 1.283v3.384q0 .758-.525 1.283t-1.283.525M15.308 9h3.384a.3.3 0 0 0 .221-.086.3.3 0 0 0 .087-.222V5.308a.3.3 0 0 0-.087-.221.3.3 0 0 0-.22-.087h-3.385a.3.3 0 0 0-.222.087.3.3 0 0 0-.086.22v3.385a.3.3 0 0 0 .086.222.3.3 0 0 0 .222.086m3.384 11.5h-3.384q-.758 0-1.283-.525a1.75 1.75 0 0 1-.525-1.283v-3.384q0-.758.525-1.283t1.283-.525h3.384q.758 0 1.283.525t.525 1.283v3.384q0 .758-.525 1.283t-1.283.525M15.308 19h3.384a.3.3 0 0 0 .221-.087.3.3 0 0 0 .087-.22v-3.385a.3.3 0 0 0-.087-.222.3.3 0 0 0-.22-.086h-3.385a.3.3 0 0 0-.222.086.3.3 0 0 0-.086.222v3.384a.3.3 0 0 0 .086.221.3.3 0 0 0 .222.087"/></g><defs><clipPath id="a"><path fill="#fff" d="M0 0h24v24H0z"/></clipPath></defs></svg>