<svg xmlns="http://www.w3.org/2000/svg" width="24" height="24"  fill="none"><g clip-path="url(#a)"><path fill="#fff" d="M5.308 10.5q-.758 0-1.283-.525A1.75 1.75 0 0 1 3.5 8.692V5.308q0-.758.525-1.283T5.308 3.5h3.384q.758 0 1.283.525t.525 1.283v3.384q0 .758-.525 1.283t-1.283.525zm0 10q-.758 0-1.283-.525a1.75 1.75 0 0 1-.525-1.283v-3.384q0-.758.525-1.283t1.283-.525h3.384q.758 0 1.283.525t.525 1.283v3.384q0 .758-.525 1.283t-1.283.525zm10-10q-.758 0-1.283-.525a1.75 1.75 0 0 1-.525-1.283V5.308q0-.758.525-1.283t1.283-.525h3.384q.758 0 1.283.525t.525 1.283v3.384q0 .758-.525 1.283t-1.283.525zm0 10q-.758 0-1.283-.525a1.75 1.75 0 0 1-.525-1.283v-3.384q0-.758.525-1.283t1.283-.525h3.384q.758 0 1.283.525t.525 1.283v3.384q0 .758-.525 1.283t-1.283.525z"/></g><defs><clipPath id="a"><path fill="#fff" d="M0 0h24v24H0z"/></clipPath></defs></svg>