<svg xmlns="http://www.w3.org/2000/svg" width="24" height="24"  fill="none"><g clip-path="url(#a)"><path fill="#fff" fill-rule="evenodd" d="M13.847 5.248A7 7 0 0 0 6.254 8H8.5a1 1 0 0 1 0 2H3V4.5a1 1 0 0 1 2 0v1.843a9 9 0 1 1-1.929 6.786 1 1 0 1 1 1.984-.25 6.998 6.998 0 0 0 11.533 4.408 7 7 0 0 0 1.252-9.146 7 7 0 0 0-3.993-2.893M13 7.5a1 1 0 0 0-2 0v5.015l.419.3 3.5 2.5a1 1 0 0 0 1.162-1.629L13 11.486z" clip-rule="evenodd"/></g><defs><clipPath id="a"><path fill="#fff" d="M0 0h24v24H0z"/></clipPath></defs></svg>