<svg xmlns="http://www.w3.org/2000/svg" width="24" height="24"  fill="none"><g clip-path="url(#a)"><path fill="#fff" fill-rule="evenodd" d="M14.203 4.83A7.5 7.5 0 0 0 5.656 8H8.25a.75.75 0 0 1 0 1.5H3V4.25a.75.75 0 0 1 1.5 0v2.775a9 9 0 1 1-1.46 5.825.75.75 0 0 1 1.494-.142 7.505 7.505 0 0 0 7.194 6.788A7.502 7.502 0 0 0 14.203 4.83M12.75 7.5a.75.75 0 0 0-1.5 0v4.886l.314.224 3.5 2.5a.75.75 0 1 0 .872-1.22l-3.186-2.276z" clip-rule="evenodd"/></g><defs><clipPath id="a"><path fill="#fff" d="M0 0h24v24H0z"/></clipPath></defs></svg>