<svg xmlns="http://www.w3.org/2000/svg" width="24" height="24"  fill="none"><g clip-path="url(#a)"><path fill="#fff" d="M12 16.75q.32 0 .534-.216A.73.73 0 0 0 12.75 16v-4.25a.73.73 0 0 0-.216-.534A.73.73 0 0 0 12 11a.73.73 0 0 0-.534.216.73.73 0 0 0-.216.534V16q0 .318.216.534a.73.73 0 0 0 .534.216m0-7.461q.343 0 .575-.233a.78.78 0 0 0 .233-.575.78.78 0 0 0-.232-.576.78.78 0 0 0-.576-.232.78.78 0 0 0-.575.232.78.78 0 0 0-.233.576q0 .343.232.575A.78.78 0 0 0 12 9.29m.002 12.211a9.3 9.3 0 0 1-3.706-.748 9.6 9.6 0 0 1-3.016-2.03 9.6 9.6 0 0 1-2.032-3.016 9.25 9.25 0 0 1-.748-3.704q0-1.972.748-3.706a9.6 9.6 0 0 1 2.03-3.016 9.6 9.6 0 0 1 3.016-2.032 9.25 9.25 0 0 1 3.704-.748q1.972 0 3.706.748a9.6 9.6 0 0 1 3.017 2.03 9.6 9.6 0 0 1 2.03 3.016 9.25 9.25 0 0 1 .749 3.704q0 1.972-.748 3.706a9.6 9.6 0 0 1-2.03 3.017 9.6 9.6 0 0 1-3.016 2.03 9.25 9.25 0 0 1-3.704.749M12 20q3.35 0 5.675-2.325T20 12t-2.325-5.675T12 4 6.325 6.325 4 12t2.325 5.675T12 20"/></g><defs><clipPath id="a"><path fill="#fff" d="M0 0h24v24H0z"/></clipPath></defs></svg>