<svg xmlns="http://www.w3.org/2000/svg" width="24" height="24"  fill="none"><g clip-path="url(#a)"><path fill="#fff" d="M4.308 18.5q-.758 0-1.283-.525a1.75 1.75 0 0 1-.525-1.283V7.308q0-.758.525-1.283T4.308 5.5h15.384q.758 0 1.283.525t.525 1.283v9.384q0 .758-.525 1.283t-1.283.525zm0-1.5h15.384a.3.3 0 0 0 .212-.096.3.3 0 0 0 .096-.212V7.308a.3.3 0 0 0-.096-.212.3.3 0 0 0-.212-.096H4.308a.3.3 0 0 0-.212.096.3.3 0 0 0-.096.212v9.384q0 .116.096.212a.3.3 0 0 0 .212.096M9 15.884h6a.86.86 0 0 0 .626-.253.85.85 0 0 0 .258-.631.85.85 0 0 0-.258-.626.85.85 0 0 0-.626-.258H9a.86.86 0 0 0-.626.253.85.85 0 0 0-.258.631q0 .368.258.626a.85.85 0 0 0 .626.258m-3-6a.85.85 0 0 0 .626-.258A.85.85 0 0 0 6.884 9a.85.85 0 0 0-.258-.626A.85.85 0 0 0 6 8.116a.85.85 0 0 0-.626.258.85.85 0 0 0-.258.626q0 .368.258.626A.85.85 0 0 0 6 9.884m3 0a.85.85 0 0 0 .626-.258A.85.85 0 0 0 9.884 9a.85.85 0 0 0-.258-.626A.85.85 0 0 0 9 8.116a.85.85 0 0 0-.626.258.85.85 0 0 0-.258.626q0 .368.258.626A.85.85 0 0 0 9 9.884m3 0a.85.85 0 0 0 .626-.258.85.85 0 0 0 .258-.626.85.85 0 0 0-.258-.626.85.85 0 0 0-.626-.258.85.85 0 0 0-.626.258.85.85 0 0 0-.258.626q0 .368.258.626a.85.85 0 0 0 .626.258m3 0a.85.85 0 0 0 .626-.258.85.85 0 0 0 .258-.626.85.85 0 0 0-.258-.626.85.85 0 0 0-.626-.258.85.85 0 0 0-.626.258.85.85 0 0 0-.258.626q0 .368.258.626a.85.85 0 0 0 .626.258m3 0a.85.85 0 0 0 .626-.258.85.85 0 0 0 .258-.626.85.85 0 0 0-.258-.626.85.85 0 0 0-.626-.258.85.85 0 0 0-.626.258.85.85 0 0 0-.258.626q0 .368.258.626a.85.85 0 0 0 .626.258m-12 3a.85.85 0 0 0 .626-.258.85.85 0 0 0 .258-.626.85.85 0 0 0-.258-.626.85.85 0 0 0-.626-.258.85.85 0 0 0-.626.258.85.85 0 0 0-.258.626q0 .368.258.626a.85.85 0 0 0 .626.258m3 0a.85.85 0 0 0 .626-.258.85.85 0 0 0 .258-.626.85.85 0 0 0-.258-.626.85.85 0 0 0-.626-.258.85.85 0 0 0-.626.258.85.85 0 0 0-.258.626q0 .368.258.626a.85.85 0 0 0 .626.258m3 0a.85.85 0 0 0 .626-.258.85.85 0 0 0 .258-.626.85.85 0 0 0-.258-.626.85.85 0 0 0-.626-.258.85.85 0 0 0-.626.258.85.85 0 0 0-.258.626q0 .368.258.626a.85.85 0 0 0 .626.258m3 0a.85.85 0 0 0 .626-.258.85.85 0 0 0 .258-.626.85.85 0 0 0-.258-.626.85.85 0 0 0-.626-.258.85.85 0 0 0-.626.258.85.85 0 0 0-.258.626q0 .368.258.626a.85.85 0 0 0 .626.258m3 0a.85.85 0 0 0 .626-.258.85.85 0 0 0 .258-.626.85.85 0 0 0-.258-.626.85.85 0 0 0-.626-.258.85.85 0 0 0-.626.258.85.85 0 0 0-.258.626q0 .368.258.626a.85.85 0 0 0 .626.258"/></g><defs><clipPath id="a"><path fill="#fff" d="M0 0h24v24H0z"/></clipPath></defs></svg>