<svg xmlns="http://www.w3.org/2000/svg" width="24" height="24"  fill="none"><g clip-path="url(#a)"><path fill="#fff" d="M16.9 10.567a.64.64 0 0 0 .321-.567.64.64 0 0 0-.321-.567l-4.356-2.798a.62.62 0 0 0-.69-.038.64.64 0 0 0-.354.605v5.596q0 .411.354.605a.62.62 0 0 0 .69-.038zM8.058 17.5q-.758 0-1.283-.525a1.75 1.75 0 0 1-.525-1.283V4.308q0-.758.525-1.283T8.058 2.5h11.384q.758 0 1.283.525t.525 1.283v11.384q0 .758-.525 1.283t-1.283.525zm0-1.5h11.384a.3.3 0 0 0 .212-.096.3.3 0 0 0 .096-.212V4.308a.3.3 0 0 0-.096-.212.3.3 0 0 0-.212-.096H8.058a.3.3 0 0 0-.212.096.3.3 0 0 0-.096.212v11.384q0 .116.096.212a.3.3 0 0 0 .212.096m-3.5 5q-.758 0-1.283-.525a1.75 1.75 0 0 1-.525-1.283V7.058q0-.32.216-.535a.73.73 0 0 1 .534-.215q.32 0 .535.215a.73.73 0 0 1 .215.535v12.134q0 .116.096.212a.3.3 0 0 0 .212.096h12.134q.32 0 .535.215a.73.73 0 0 1 .215.535.73.73 0 0 1-.215.535.73.73 0 0 1-.535.215z"/></g><defs><clipPath id="a"><path fill="#fff" d="M0 0h24v24H0z"/></clipPath></defs></svg>