<svg xmlns="http://www.w3.org/2000/svg" width="24" height="24"  fill="none"><g clip-path="url(#a)"><path fill="#fff" d="M20.692 8.5q.714 0 1.26.547.549.547.548 1.26v1.615a1.9 1.9 0 0 1-.13.674l-2.866 6.761q-.216.48-.721.812-.506.33-1.052.33H9.634q-.747 0-1.277-.53a1.74 1.74 0 0 1-.53-1.277V9.248q0-.362.148-.695.148-.334.394-.58l5.29-5.256q.3-.284.691-.348a1.2 1.2 0 0 1 .752.117q.36.182.519.536t.063.753L14.609 8.5zm-16.384 12q-.748 0-1.278-.53a1.74 1.74 0 0 1-.53-1.278v-8.385q0-.747.53-1.278.53-.53 1.278-.53h.211q.748 0 1.278.53.53.531.53 1.278v8.394q0 .75-.53 1.273a1.75 1.75 0 0 1-1.278.526z"/></g><defs><clipPath id="a"><path fill="#fff" d="M0 0h24v24H0z"/></clipPath></defs></svg>