<svg xmlns="http://www.w3.org/2000/svg" width="24" height="24"  fill="none"><g clip-path="url(#a)"><path fill="#fff" fill-rule="evenodd" d="M14.813 5.018 14.41 6.5 14 8h5.192a2.72 2.72 0 0 1 2.334 4.123L21 13l.165.413a4 4 0 0 1-.514 3.885l-.151.202v.5a3 3 0 0 1-3 3H5a2 2 0 0 1-2-2v-8a2 2 0 0 1 2-2h2v.282c0-.834.26-1.647.745-2.325L12 1l1.1.472a3 3 0 0 1 1.713 3.546M7 10.5H5a.5.5 0 0 0-.5.5v8a.5.5 0 0 0 .5.5h2zm10.5 9h-9V9.282c0-.521.163-1.03.466-1.453l3.553-4.975a1.5 1.5 0 0 1 .847 1.77l-.813 2.981A1.5 1.5 0 0 0 14 9.5h5.192a1.224 1.224 0 0 1 1.048 1.852l-.526.876c-.241.402-.28.894-.107 1.33l.165.412a2.5 2.5 0 0 1-.32 2.428l-.152.202c-.195.26-.3.575-.3.9v.5a1.5 1.5 0 0 1-1.5 1.5" clip-rule="evenodd"/></g><defs><clipPath id="a"><path fill="#fff" d="M0 0h24v24H0z"/></clipPath></defs></svg>