<svg xmlns="http://www.w3.org/2000/svg" width="24" height="24"  fill="none"><g clip-path="url(#a)"><path fill="#fff" d="M20.692 8.5q.714 0 1.26.547.549.548.548 1.26v1.616q0 .157-.04.337t-.09.336l-2.867 6.762q-.214.48-.72.81a1.9 1.9 0 0 1-1.056.332H7.212v-12l5.817-5.768a1.21 1.21 0 0 1 1.442-.22q.36.191.527.545t.071.733L13.992 8.5zm-11.98.638V19h9.019q.105 0 .216-.058a.37.37 0 0 0 .169-.192L21 12v-1.693a.3.3 0 0 0-.087-.22.3.3 0 0 0-.22-.087h-8.597l1.254-5.481zM4.307 20.5a1.74 1.74 0 0 1-1.277-.531 1.74 1.74 0 0 1-.531-1.277v-8.385q0-.745.531-1.276A1.74 1.74 0 0 1 4.308 8.5h2.904V10H4.308a.3.3 0 0 0-.221.086.3.3 0 0 0-.087.221v8.385a.3.3 0 0 0 .087.221.3.3 0 0 0 .22.087h2.904v1.5z"/></g><defs><clipPath id="a"><path fill="#fff" d="M0 0h24v24H0z"/></clipPath></defs></svg>