<svg xmlns="http://www.w3.org/2000/svg" width="24" height="24"  fill="none"><g clip-path="url(#a)"><path fill="#fff" d="M7.039 16.538q-1.884 0-3.211-1.328Q2.5 13.883 2.5 12t1.328-3.211 3.21-1.328h3.02q.318 0 .534.216a.73.73 0 0 1 .216.534q0 .32-.216.535a.73.73 0 0 1-.534.215h-3.02q-1.26 0-2.149.89A2.93 2.93 0 0 0 4 11.998q0 1.26.89 2.15.888.889 2.147.889h3.02q.32 0 .535.216a.73.73 0 0 1 .216.534q0 .319-.216.534a.73.73 0 0 1-.534.216zM9 12.749a.73.73 0 0 1-.534-.215.73.73 0 0 1-.216-.535q0-.319.216-.534A.73.73 0 0 1 9 11.249h6q.319 0 .534.216a.73.73 0 0 1 .216.535q0 .318-.216.534a.73.73 0 0 1-.534.215zm4.942 3.789a.73.73 0 0 1-.534-.216.73.73 0 0 1-.216-.535q0-.318.216-.534a.73.73 0 0 1 .534-.215h3.02q1.26 0 2.148-.89.89-.89.89-2.149 0-1.26-.89-2.149a2.93 2.93 0 0 0-2.147-.89h-3.02a.73.73 0 0 1-.535-.215.73.73 0 0 1-.216-.534q0-.32.216-.535a.73.73 0 0 1 .534-.215h3.02q1.883 0 3.21 1.327 1.328 1.327 1.328 3.21t-1.328 3.212-3.21 1.328z"/></g><defs><clipPath id="a"><path fill="#fff" d="M0 0h24v24H0z"/></clipPath></defs></svg>