<svg xmlns="http://www.w3.org/2000/svg" width="24" height="24"  fill="none"><g clip-path="url(#a)"><path fill="#fff" fill-rule="evenodd" d="M5.636 5.414a.749.749 0 1 0-1.06-1.06A10.5 10.5 0 0 0 2.299 7.76a10.494 10.494 0 0 0 .001 8.036 10.5 10.5 0 0 0 2.275 3.407.75.75 0 1 0 1.061-1.061 9 9 0 0 1-1.95-2.92 9.005 9.005 0 0 1 1.95-9.808m2.828 1.768a.75.75 0 0 1 0 1.06 5 5 0 0 0 0 7.07.749.749 0 1 1-1.06 1.06A6.5 6.5 0 0 1 5.5 11.779a6.5 6.5 0 0 1 1.904-4.596.75.75 0 0 1 1.06 0m7.072 0a.75.75 0 0 1 1.06 0 6.495 6.495 0 0 1 0 9.192.749.749 0 1 1-1.06-1.06 5.006 5.006 0 0 0 0-7.072.75.75 0 0 1 0-1.06m2.828-2.83a.75.75 0 0 1 1.06 0 10.5 10.5 0 0 1 .001 14.85.75.75 0 1 1-1.061-1.06 9 9 0 0 0 0-12.728.75.75 0 0 1 0-1.06zM12 13.779a2 2 0 1 0 .001-4 2 2 0 0 0-.001 4" clip-rule="evenodd"/></g><defs><clipPath id="a"><path fill="#fff" d="M0 0h24v24H0z"/></clipPath></defs></svg>