<svg xmlns="http://www.w3.org/2000/svg" width="24" height="24"  fill="none"><g clip-path="url(#a)"><path fill="#fff" fill-rule="evenodd" d="M5.99 5.99c.39-.39.39-1.023 0-1.414a1 1 0 0 0-1.415 0 10.497 10.497 0 0 0 0 14.85c.39.39 1.024.39 1.415 0 .39-.39.39-1.024 0-1.415A8.49 8.49 0 0 1 3.5 12a8.5 8.5 0 0 1 2.49-6.01m2.828 1.415a1 1 0 0 1 0 1.414 4.5 4.5 0 0 0-.975 1.46 4.48 4.48 0 0 0 0 3.444c.226.546.557 1.042.975 1.46a1 1 0 0 1-1.414 1.414A6.5 6.5 0 0 1 5.5 12a6.5 6.5 0 0 1 1.904-4.596 1 1 0 0 1 1.414 0m6.364 0a1 1 0 0 1 1.414 0 6.495 6.495 0 0 1 0 9.192 1 1 0 0 1-1.414-1.414 4.5 4.5 0 0 0 0-6.364 1 1 0 0 1 0-1.414m2.828-2.83c.39-.39 1.024-.39 1.415 0a10.5 10.5 0 0 1 0 14.85c-.39.39-1.024.39-1.415 0a1 1 0 0 1 0-1.414 8.496 8.496 0 0 0 0-12.02 1 1 0 0 1 0-1.415M12 14.502a2.5 2.5 0 0 0 0-5 2.5 2.5 0 0 0 0 5" clip-rule="evenodd"/></g><defs><clipPath id="a"><path fill="#fff" d="M0 0h24v24H0z"/></clipPath></defs></svg>