<svg xmlns="http://www.w3.org/2000/svg" width="24" height="24"  fill="none"><g clip-path="url(#a)"><path stroke="#fff" stroke-linecap="round" stroke-linejoin="round" stroke-width="1.6" d="M21.6 6.799H20m-12 0H2.4M21.6 16.799H14m-10.4 0H2.4"/><path fill="#fff" d="M13.212 3.628c.157-.88 1.42-.88 1.576 0l.228 1.282a.8.8 0 0 0 .568.63l1.72.49c.774.22.774 1.318 0 1.539l-1.72.49a.8.8 0 0 0-.568.63l-.228 1.281c-.157.88-1.42.88-1.576 0l-.228-1.281a.8.8 0 0 0-.568-.63l-1.72-.49c-.774-.221-.774-1.318 0-1.54l1.72-.49a.8.8 0 0 0 .568-.63z"/><rect width="4.8" height="4.8" x="6.4" y="14.4" stroke="#fff" stroke-width="1.6" rx="1.6"/></g><defs><clipPath id="a"><path fill="#fff" d="M0 0h24v24H0z"/></clipPath></defs></svg>