<svg xmlns="http://www.w3.org/2000/svg" width="24" height="24"  fill="none"><g clip-path="url(#a)"><path fill="#fff" d="M4.308 19.5q-.758 0-1.283-.525a1.75 1.75 0 0 1-.525-1.283V6.308q0-.758.525-1.283T4.308 4.5h15.384q.758 0 1.283.525t.525 1.283v11.384q0 .758-.525 1.283t-1.283.525zM20 7.442l-7.514 4.81a1.2 1.2 0 0 1-.238.103.85.85 0 0 1-.496 0 1.2 1.2 0 0 1-.239-.103L4 7.442v10.25a.3.3 0 0 0 .087.221.3.3 0 0 0 .22.087h15.385a.3.3 0 0 0 .221-.087.3.3 0 0 0 .087-.22zM12 11l7.846-5H4.154zM4 7.673V6.53v.03-.032z"/></g><defs><clipPath id="a"><path fill="#fff" d="M0 0h24v24H0z"/></clipPath></defs></svg>