<svg xmlns="http://www.w3.org/2000/svg" width="24" height="24"  fill="none"><g clip-path="url(#a)"><path fill="#fff" d="M4.25 17.634a.73.73 0 0 1-.534-.215.73.73 0 0 1-.216-.535q0-.318.216-.534a.73.73 0 0 1 .534-.216h15.5q.318 0 .534.216a.73.73 0 0 1 .216.535q0 .318-.216.534a.73.73 0 0 1-.534.215zm0-4.884a.73.73 0 0 1-.534-.216.73.73 0 0 1-.216-.535q0-.318.216-.534a.73.73 0 0 1 .534-.215h15.5q.318 0 .534.216A.73.73 0 0 1 20.5 12q0 .319-.216.534a.73.73 0 0 1-.534.216zm0-4.885a.73.73 0 0 1-.534-.216.73.73 0 0 1-.216-.534q0-.319.216-.535a.73.73 0 0 1 .534-.215h15.5q.318 0 .534.216a.73.73 0 0 1 .216.534q0 .32-.216.535a.73.73 0 0 1-.534.215z"/></g><defs><clipPath id="a"><path fill="#fff" d="M0 0h24v24H0z"/></clipPath></defs></svg>