<svg xmlns="http://www.w3.org/2000/svg" fill="none" viewBox="0 0 24 25"><g clip-path="url(#a)"><path d="M12 20.087c-.412 0-.766-.147-1.06-.441a1.443 1.443 0 0 1-.44-1.06c0-.412.147-.765.44-1.059.294-.294.648-.44 1.06-.44.412 0 .766.146 1.06.44.293.294.44.647.44 1.06 0 .412-.147.765-.44 1.059-.294.294-.648.44-1.06.44Zm0-5.77c-.412 0-.766-.147-1.06-.44a1.444 1.444 0 0 1-.44-1.06c0-.412.147-.765.44-1.059.294-.294.648-.44 1.06-.44.412 0 .766.146 1.06.44.293.294.44.647.44 1.06 0 .412-.147.765-.44 1.059-.294.293-.648.44-1.06.44Zm0-5.769c-.412 0-.766-.147-1.06-.44a1.444 1.444 0 0 1-.44-1.06c0-.412.147-.765.44-1.06.294-.293.648-.44 1.06-.44.412 0 .766.147 1.06.44.293.295.44.648.44 1.06 0 .413-.147.766-.44 1.06-.294.293-.648.44-1.06.44Z"/></g><defs><clipPath id="a"><path fill="#fff" d="M0 0h24v24H0z" transform="translate(0 .817)"/></clipPath></defs></svg>
