<svg xmlns="http://www.w3.org/2000/svg" width="24" height="24"  fill="none"><g fill="#fff" clip-path="url(#a)"><path fill-rule="evenodd" d="M18.617 2.123a.75.75 0 0 1 .383.654v13a3 3 0 1 1-1.5-2.599V4.113L10 8.697v10.08a3 3 0 1 1-1.5-2.599v-7.9a.75.75 0 0 1 .359-.64l9-5.5a.75.75 0 0 1 .758-.015M16 14.277a1.5 1.5 0 1 1-.001 3.001 1.5 1.5 0 0 1 .001-3m-9 3a1.5 1.5 0 1 1-.001 3.001 1.5 1.5 0 0 1 .001-3" clip-rule="evenodd"/><path d="m10 11.697 7.5-4.583V5.357L10 9.94z"/></g><defs><clipPath id="a"><path fill="#fff" d="M0 0h24v24H0z"/></clipPath></defs></svg>