<svg xmlns="http://www.w3.org/2000/svg" width="24" height="24"  fill="none"><g clip-path="url(#a)"><path fill="#fff" fill-rule="evenodd" d="M2 4.898v-2.12l.94.94.56.56.5.5.94-.94.12-.12.94-.94.94.94.12.12.94.94.94-.94.12-.12.94-.94.94.94.12.12.94.94.94-.94.12-.12.94-.94.94.94.12.12.94.94.94-.94.12-.12.94-.94.94.94.12.12.94.94.5-.5.56-.56.94-.94v16a2 2 0 0 1-2 2H4a2 2 0 0 1-2-2zm8.75 14.38h-4.5v-5.25h4.5zm1.25 0v-6.5H5v6.5H4a.5.5 0 0 1-.5-.5V7.427l2.514-2.515.925.925L8 6.898l1.06-1.06.94-.94.94.94L12 6.897l1.06-1.06.94-.94.94.94L16 6.897l1.06-1.06.926-.926L20.5 7.427v11.35a.5.5 0 0 1-.5.5zm7-10.5v2H5v-2zm-5 4h5v1.5h-5zm5 3h-5v1.5h5z" clip-rule="evenodd"/></g><defs><clipPath id="a"><path fill="#fff" d="M0 0h24v24H0z"/></clipPath></defs></svg>