<svg xmlns="http://www.w3.org/2000/svg" width="24" height="24"  fill="none"><g clip-path="url(#a)"><path fill="#fff" d="M16.384 16.557V7.44q0-.318.216-.534a.73.73 0 0 1 .535-.216q.318 0 .534.216a.73.73 0 0 1 .215.534v9.116q0 .318-.215.534a.73.73 0 0 1-.535.216.73.73 0 0 1-.534-.216.73.73 0 0 1-.216-.534m-10.269-.943v-7.23q0-.407.271-.656a.9.9 0 0 1 .633-.248q.125 0 .256.025a.6.6 0 0 1 .246.115l5.43 3.631a.9.9 0 0 1 .304.329.9.9 0 0 1 .098.42.9.9 0 0 1-.098.418.9.9 0 0 1-.303.33l-5.431 3.63a.6.6 0 0 1-.246.115 1.4 1.4 0 0 1-.256.025.9.9 0 0 1-.633-.248.85.85 0 0 1-.27-.656"/></g><defs><clipPath id="a"><path fill="#fff" d="M0 0h24v24H0z"/></clipPath></defs></svg>