<svg xmlns="http://www.w3.org/2000/svg" width="24" height="24"  fill="none"><g clip-path="url(#a)"><path fill="#fff" d="M16.515 18.885H5.25a.73.73 0 0 1-.535-.216.73.73 0 0 1-.215-.535q0-.318.215-.534a.73.73 0 0 1 .535-.215h1.057V9.923q0-.7.17-1.39.169-.692.507-1.317L8.12 8.35a4.11 4.11 0 0 0-.312 1.573v7.462h7.277L2.561 4.9a.68.68 0 0 1-.217-.52q0-.317.217-.534a.72.72 0 0 1 .527-.217q.31 0 .527.217l16.788 16.789q.208.207.22.514a.7.7 0 0 1-.222.541.71.71 0 0 1-.524.216.72.72 0 0 1-.527-.217zM13.249 4.372q1.962.414 3.202 1.968t1.24 3.582v3.327q0 .375-.233.563a.789.789 0 0 1-1.03-.008q-.236-.197-.236-.57V9.923q0-1.737-1.228-2.964-1.228-1.228-2.965-1.228-.553 0-1.119.162a3.8 3.8 0 0 0-1.011.447.98.98 0 0 1-.621.085.73.73 0 0 1-.491-.344.73.73 0 0 1-.121-.516.56.56 0 0 1 .287-.417q.411-.28.872-.473.46-.192.954-.302V3.75q0-.52.365-.885.364-.365.884-.365.521 0 .886.365t.365.885zM12 21.693q-.679 0-1.21-.374t-.532-1.007q0-.18.147-.304a.5.5 0 0 1 .328-.123h2.533q.19 0 .333.123a.39.39 0 0 1 .144.305q0 .63-.532 1.005t-1.21.374"/></g><defs><clipPath id="a"><path fill="#fff" d="M0 0h24v24H0z"/></clipPath></defs></svg>