<svg xmlns="http://www.w3.org/2000/svg" width="24" height="24"  fill="none"><g clip-path="url(#a)"><path fill="#fff" d="M5.25 18.885a.73.73 0 0 1-.534-.216.73.73 0 0 1-.216-.535q0-.318.216-.534a.73.73 0 0 1 .534-.215h1.058V9.923q0-2.017 1.245-3.567a5.52 5.52 0 0 1 3.197-1.983V3.75q0-.52.364-.885Q11.48 2.5 12 2.5t.885.365.366.885v.623a5.52 5.52 0 0 1 3.197 1.983q1.245 1.55 1.245 3.567v7.462h1.058q.318 0 .534.215a.73.73 0 0 1 .216.535q0 .318-.216.534a.73.73 0 0 1-.534.215zm6.748 2.807q-.746 0-1.276-.53a1.74 1.74 0 0 1-.53-1.277h3.616q0 .747-.532 1.277-.531.53-1.278.53"/></g><defs><clipPath id="a"><path fill="#fff" d="M0 0h24v24H0z"/></clipPath></defs></svg>