<svg xmlns="http://www.w3.org/2000/svg" width="24" height="24"  fill="none"><g clip-path="url(#a)"><path fill="#fff" d="M15.5 18.5q-.613 0-1.057-.443A1.44 1.44 0 0 1 14 17V7q0-.613.443-1.057A1.44 1.44 0 0 1 15.5 5.5h.75q.613 0 1.057.443.443.444.443 1.057v10q0 .613-.443 1.057a1.44 1.44 0 0 1-1.057.443zm-7.75 0q-.613 0-1.057-.443A1.44 1.44 0 0 1 6.25 17V7q0-.613.443-1.057A1.44 1.44 0 0 1 7.75 5.5h.75q.613 0 1.057.443Q10 6.387 10 7v10q0 .613-.443 1.057A1.44 1.44 0 0 1 8.5 18.5z"/></g><defs><clipPath id="a"><path fill="#fff" d="M0 0h24v24H0z"/></clipPath></defs></svg>