<svg xmlns="http://www.w3.org/2000/svg" width="24" height="24"  fill="none"><g clip-path="url(#a)"><path fill="#fff" d="M19 15.5h-7.211l-1.566 1.565a.75.75 0 0 1-.539.223h-.427a.73.73 0 0 1-.537-.219.73.73 0 0 1-.22-.54v-3.78H3.111a.73.73 0 0 1-.534-.215.73.73 0 0 1-.215-.535q0-.319.215-.534a.73.73 0 0 1 .535-.216H8.5V7.471q0-.324.22-.542a.73.73 0 0 1 .537-.218h.427a.77.77 0 0 1 .539.223L11.789 8.5H19v-.25q0-.318.216-.534a.73.73 0 0 1 .534-.216q.32 0 .535.216a.73.73 0 0 1 .215.534v7.5q0 .32-.216.535a.73.73 0 0 1-.534.215.73.73 0 0 1-.535-.215.73.73 0 0 1-.215-.535z"/></g><defs><clipPath id="a"><path fill="#fff" d="M0 0h24v24H0z"/></clipPath></defs></svg>