<svg xmlns="http://www.w3.org/2000/svg" width="24" height="24"  fill="none"><g clip-path="url(#a)"><path fill="#fff" d="M11.154 16.75h6.692a.88.88 0 0 0 .645-.259.88.88 0 0 0 .259-.645v-4.038a.88.88 0 0 0-.259-.646.88.88 0 0 0-.645-.258h-6.692a.88.88 0 0 0-.645.258.88.88 0 0 0-.259.646v4.038q0 .387.259.645a.88.88 0 0 0 .645.259M4.308 19.5q-.758 0-1.283-.525a1.75 1.75 0 0 1-.525-1.283V6.308q0-.758.525-1.283T4.308 4.5h15.384q.758 0 1.283.525t.525 1.283v11.384q0 .758-.525 1.283t-1.283.525z"/></g><defs><clipPath id="a"><path fill="#fff" d="M0 0h24v24H0z"/></clipPath></defs></svg>