<svg xmlns="http://www.w3.org/2000/svg" width="24" height="24"  fill="none"><g clip-path="url(#a)"><path fill="#fff" fill-rule="evenodd" d="M3.75 5a.75.75 0 0 0 0 1.5h16.5a.75.75 0 0 0 0-1.5zm0 4a.75.75 0 0 0 0 1.5h16.5a.75.75 0 0 0 0-1.5zm0 4a.75.75 0 0 0 0 1.5h8.5a.75.75 0 0 0 0-1.5zm8.5 4a.75.75 0 0 1 0 1.5h-8.5a.75.75 0 0 1 0-1.5zm3.498-3.572a.5.5 0 0 0-.748.434v6.276a.5.5 0 0 0 .748.434L22 17z" clip-rule="evenodd"/></g><defs><clipPath id="a"><path fill="#fff" d="M0 0h24v24H0z"/></clipPath></defs></svg>