<svg xmlns="http://www.w3.org/2000/svg" width="24" height="24"  fill="none"><g clip-path="url(#a)"><path fill="#fff" d="M7.5 12.846h2.308v1.404a.58.58 0 0 0 .596.596.58.58 0 0 0 .596-.596v-4.5a.58.58 0 0 0-.596-.596.58.58 0 0 0-.596.596v1.904H7.5V9.75a.58.58 0 0 0-.596-.596.58.58 0 0 0-.596.596v4.5a.58.58 0 0 0 .596.596.58.58 0 0 0 .596-.596zm5.952 2h3.202q.435 0 .736-.302.302-.302.302-.736v-3.616q0-.435-.302-.736a1 1 0 0 0-.736-.302h-3.202a.43.43 0 0 0-.316.136.43.43 0 0 0-.136.316v4.788q0 .18.136.316t.316.136m.74-1.192v-3.308h2.154q.058 0 .106.048a.15.15 0 0 1 .048.106v3a.15.15 0 0 1-.048.106.15.15 0 0 1-.106.048zM4.308 19.5q-.758 0-1.283-.525a1.75 1.75 0 0 1-.525-1.283V6.308q0-.758.525-1.283T4.308 4.5h15.384q.758 0 1.283.525t.525 1.283v11.384q0 .758-.525 1.283t-1.283.525zm0-1.5h15.384a.3.3 0 0 0 .212-.096.3.3 0 0 0 .096-.212V6.308a.3.3 0 0 0-.096-.212.3.3 0 0 0-.212-.096H4.308a.3.3 0 0 0-.212.096.3.3 0 0 0-.096.212v11.384q0 .116.096.212a.3.3 0 0 0 .212.096"/></g><defs><clipPath id="a"><path fill="#fff" d="M0 0h24v24H0z"/></clipPath></defs></svg>