<svg xmlns="http://www.w3.org/2000/svg" width="24" height="24"  fill="none"><g clip-path="url(#a)"><path fill="#fff" d="M6.406 12.555v.958H1.577l-.05-.737 2.84-4.48h.971l-1.05 1.783-1.523 2.476zM5.61 8.297V15H4.39V8.297zm5.976 4.87q0 .627-.295 1.06a1.8 1.8 0 0 1-.796.649 2.9 2.9 0 0 1-1.142.216q-.636 0-1.147-.216a1.87 1.87 0 0 1-.805-.65q-.295-.431-.295-1.058 0-.42.166-.76.17-.34.47-.585.298-.248.708-.377.41-.135.894-.134.645 0 1.15.235.511.23.802.65.29.414.29.97m-1.225-.073q0-.322-.129-.557a.87.87 0 0 0-.354-.368 1.1 1.1 0 0 0-.534-.13q-.31 0-.539.13a.9.9 0 0 0-.355.368 1.2 1.2 0 0 0-.124.557q0 .327.124.562a.9.9 0 0 0 .36.354q.23.124.543.124a1.1 1.1 0 0 0 .538-.124.84.84 0 0 0 .346-.354q.124-.235.124-.562m1.077-3.03q0 .508-.267.903-.267.391-.74.612a2.5 2.5 0 0 1-1.078.221q-.607 0-1.087-.22a1.8 1.8 0 0 1-.745-.613 1.58 1.58 0 0 1-.268-.902q0-.6.272-1.013.272-.42.741-.635A2.6 2.6 0 0 1 9.344 8.2q.612 0 1.086.217.474.216.741.635.267.414.267 1.013m-1.215.051q0-.285-.106-.497a.8.8 0 0 0-.304-.336.9.9 0 0 0-.47-.12.9.9 0 0 0-.46.115.77.77 0 0 0-.299.332q-.106.212-.106.506 0 .29.106.507a.83.83 0 0 0 .3.34.9.9 0 0 0 .469.12q.27 0 .465-.12a.83.83 0 0 0 .299-.34 1.14 1.14 0 0 0 .106-.507m6.74.958v1.128q0 .773-.157 1.321a2.4 2.4 0 0 1-.45.898q-.296.345-.705.51a2.5 2.5 0 0 1-.912.162 2.6 2.6 0 0 1-.746-.101 1.9 1.9 0 0 1-.621-.322 2 2 0 0 1-.47-.562 3 3 0 0 1-.299-.815 5.3 5.3 0 0 1-.101-1.091v-1.128q0-.774.156-1.317.162-.543.456-.888t.704-.502q.411-.16.912-.161.405 0 .746.101.345.101.617.318.276.21.47.552.193.336.294.81.105.47.106 1.087m-1.216 1.294v-1.464a4 4 0 0 0-.046-.673 2 2 0 0 0-.124-.492 1 1 0 0 0-.207-.327.8.8 0 0 0-.285-.189 1 1 0 0 0-.355-.06.9.9 0 0 0-.428.097.8.8 0 0 0-.318.295 1.6 1.6 0 0 0-.198.538q-.064.332-.064.81v1.465q0 .386.041.676.045.291.13.498.087.207.206.34.124.128.286.194.16.06.354.06a.9.9 0 0 0 .428-.097.8.8 0 0 0 .318-.304q.129-.212.193-.548.07-.34.07-.82m3.444-1.39v5.938h-1.22V10.02H19.1zm3.2 1.482v.096q0 .544-.13 1.009a2.5 2.5 0 0 1-.367.805 1.75 1.75 0 0 1-.608.534q-.36.19-.829.19-.46-.001-.8-.176a1.65 1.65 0 0 1-.576-.506 2.8 2.8 0 0 1-.378-.76 5.7 5.7 0 0 1-.207-.953v-.308a6 6 0 0 1 .207-.995q.142-.45.378-.778.234-.33.57-.51.342-.18.797-.18.474 0 .833.18.364.178.613.515.248.335.373.8.123.465.124 1.037m-1.22.096v-.096q0-.331-.06-.613a1.6 1.6 0 0 0-.184-.497.9.9 0 0 0-.322-.336.9.9 0 0 0-.48-.12q-.28 0-.483.092a.85.85 0 0 0-.331.263 1.3 1.3 0 0 0-.203.405 2.5 2.5 0 0 0-.092.511v.764q.042.34.161.613.12.27.35.432.236.162.608.161a.9.9 0 0 0 .479-.124.96.96 0 0 0 .322-.34q.124-.222.18-.507t.055-.608"/></g><defs><clipPath id="a"><path fill="#fff" d="M0 0h24v24H0z"/></clipPath></defs></svg>