<svg xmlns="http://www.w3.org/2000/svg" width="24" height="24"  fill="none"><g clip-path="url(#a)"><path fill="#fff" d="M4.614 8.278V15h-1.22V9.701l-1.616.534V9.25l2.698-.972zm6.91 4.277v.958h-4.83l-.05-.737 2.84-4.48h.972l-1.05 1.783-1.523 2.476zm-.796-4.258V15h-1.22V8.297zm6.183 4.258v.958h-4.83l-.05-.737 2.84-4.48h.972l-1.05 1.783-1.524 2.476zm-.797-4.258V15h-1.22V8.297zm2.809 2.68v5.938h-1.22V10.02h1.128zm3.2 1.482v.096q0 .544-.13 1.009a2.5 2.5 0 0 1-.368.805 1.75 1.75 0 0 1-.608.534q-.36.19-.828.19a1.7 1.7 0 0 1-.801-.176 1.65 1.65 0 0 1-.576-.506 2.8 2.8 0 0 1-.377-.76 5.7 5.7 0 0 1-.208-.953v-.308a6 6 0 0 1 .208-.995q.142-.45.377-.778.235-.33.571-.51.341-.18.796-.18.475 0 .834.18.363.178.612.515.249.335.373.8t.124 1.037m-1.22.096v-.096q0-.331-.06-.613a1.6 1.6 0 0 0-.185-.497.9.9 0 0 0-.322-.336.9.9 0 0 0-.479-.12q-.28 0-.483.092a.85.85 0 0 0-.332.263 1.3 1.3 0 0 0-.202.405 2.5 2.5 0 0 0-.092.511v.764q.041.34.16.613.12.27.35.432.236.162.608.161a.9.9 0 0 0 .48-.124.96.96 0 0 0 .321-.34q.124-.222.18-.507t.055-.608"/></g><defs><clipPath id="a"><path fill="#fff" d="M0 0h24v24H0z"/></clipPath></defs></svg>