<svg xmlns="http://www.w3.org/2000/svg" width="24" height="24"  fill="none"><g clip-path="url(#a)"><path fill="#fff" d="m14.135 12.539 1.842 2.1q.05.064.45.207a.54.54 0 0 0 .53-.34.55.55 0 0 0-.08-.623l-1.685-1.902 1.695-1.898a.51.51 0 0 0 .075-.601.55.55 0 0 0-.526-.328.585.585 0 0 0-.44.208l-1.862 2.08V9.75a.58.58 0 0 0-.595-.596.58.58 0 0 0-.597.596v4.5a.58.58 0 0 0 .597.596.58.58 0 0 0 .595-.596zm-4.558.807v.904a.58.58 0 0 0 .596.596.58.58 0 0 0 .596-.596v-.904h.52a.58.58 0 0 0 .595-.596.58.58 0 0 0-.595-.596h-.52V9.75a.58.58 0 0 0-.596-.596.58.58 0 0 0-.596.596v2.404H7.885V9.75a.58.58 0 0 0-.596-.596.58.58 0 0 0-.597.596v3a.58.58 0 0 0 .596.596zM5.307 20.5q-.756 0-1.282-.525a1.75 1.75 0 0 1-.525-1.283V5.308q0-.758.525-1.283T5.308 3.5h13.384q.758 0 1.283.525t.525 1.283v13.384q0 .758-.525 1.283t-1.283.525zm0-1.5h13.385a.3.3 0 0 0 .212-.096.3.3 0 0 0 .096-.212V5.308a.3.3 0 0 0-.096-.212.3.3 0 0 0-.212-.096H5.308a.3.3 0 0 0-.212.096.3.3 0 0 0-.096.212v13.384q0 .116.096.212a.3.3 0 0 0 .212.096"/></g><defs><clipPath id="a"><path fill="#fff" d="M0 0h24v24H0z"/></clipPath></defs></svg>