<svg xmlns="http://www.w3.org/2000/svg" width="24" height="24"  fill="none"><g clip-path="url(#a)"><path fill="#fff" d="M6.254 8.297v.663L3.621 15H2.337L4.97 9.254H1.563v-.957zm5.424 5.745V15h-4.54v-.82l2.178-2.352q.34-.387.539-.672.198-.285.28-.516a1.28 1.28 0 0 0-.023-.985.83.83 0 0 0-.322-.364.95.95 0 0 0-.51-.129q-.338 0-.576.157a.97.97 0 0 0-.36.423q-.12.273-.12.622h-1.22q0-.594.277-1.082.276-.492.792-.787T9.298 8.2q.69 0 1.169.23.48.226.727.645.249.42.249.999 0 .323-.106.635-.105.313-.3.622a5.4 5.4 0 0 1-.45.617q-.262.313-.585.64l-1.308 1.454zm5.285-2.969v1.128q0 .773-.157 1.321a2.4 2.4 0 0 1-.45.898q-.296.345-.705.51a2.5 2.5 0 0 1-.912.162 2.6 2.6 0 0 1-.746-.101 1.9 1.9 0 0 1-.621-.322 2 2 0 0 1-.47-.562 3 3 0 0 1-.299-.815 5.3 5.3 0 0 1-.101-1.091v-1.128q0-.774.156-1.317.162-.543.456-.888t.704-.502q.411-.16.912-.161.405 0 .746.101.345.101.617.318.276.21.47.552.193.336.294.81.105.47.106 1.087m-1.216 1.294v-1.464a4 4 0 0 0-.046-.673 2 2 0 0 0-.124-.492 1 1 0 0 0-.207-.327.8.8 0 0 0-.285-.189 1 1 0 0 0-.355-.06.9.9 0 0 0-.428.097.8.8 0 0 0-.318.295 1.6 1.6 0 0 0-.198.538q-.064.332-.064.81v1.465q0 .386.041.676.045.291.13.498.087.207.206.34.124.128.286.194.16.06.354.06a.9.9 0 0 0 .428-.097.8.8 0 0 0 .318-.304q.129-.212.193-.548.07-.34.07-.82m3.444-1.39v5.938h-1.22V10.02H19.1zm3.2 1.482v.096q0 .544-.13 1.009a2.5 2.5 0 0 1-.367.805 1.75 1.75 0 0 1-.608.534q-.36.19-.829.19-.46-.001-.8-.176a1.65 1.65 0 0 1-.576-.506 2.8 2.8 0 0 1-.378-.76 5.7 5.7 0 0 1-.207-.953v-.308a6 6 0 0 1 .207-.995q.142-.45.378-.778.234-.33.57-.51.342-.18.797-.18.474 0 .833.18.364.178.613.515.248.335.373.8.123.465.124 1.037m-1.22.096v-.096q0-.331-.06-.613a1.6 1.6 0 0 0-.184-.497.9.9 0 0 0-.322-.336.9.9 0 0 0-.48-.12q-.28 0-.483.092a.85.85 0 0 0-.331.263 1.3 1.3 0 0 0-.203.405 2.5 2.5 0 0 0-.092.511v.764q.042.34.161.613.12.27.35.432.236.162.608.161a.9.9 0 0 0 .479-.124.96.96 0 0 0 .322-.34q.124-.222.18-.507t.055-.608"/></g><defs><clipPath id="a"><path fill="#fff" d="M0 0h24v24H0z"/></clipPath></defs></svg>