<svg xmlns="http://www.w3.org/2000/svg" width="24" height="24"  fill="none"><g clip-path="url(#a)"><path fill="#fff" d="M3.082 11.11h.686q.364 0 .599-.124a.83.83 0 0 0 .354-.35q.12-.226.12-.52 0-.29-.106-.502a.73.73 0 0 0-.322-.332 1.1 1.1 0 0 0-.543-.12q-.268 0-.493.106a.9.9 0 0 0-.354.304.8.8 0 0 0-.13.465h-1.22q0-.543.286-.953.29-.414.783-.649a2.5 2.5 0 0 1 1.1-.235q.663 0 1.16.221.502.216.778.64.28.423.281 1.05 0 .3-.143.598a1.6 1.6 0 0 1-.41.534 2.1 2.1 0 0 1-.658.382 2.6 2.6 0 0 1-.888.143h-.88zm0 .939v-.65h.88q.566 0 .98.134.42.129.691.369.272.234.4.548.134.312.134.672 0 .47-.175.838a1.75 1.75 0 0 1-.493.616 2.2 2.2 0 0 1-.736.387 3.1 3.1 0 0 1-.916.13q-.429-.001-.834-.116a2.4 2.4 0 0 1-.722-.354 1.75 1.75 0 0 1-.511-.599 1.8 1.8 0 0 1-.19-.842h1.22q0 .276.134.492a.97.97 0 0 0 .378.34q.244.12.548.12.336 0 .575-.12a.88.88 0 0 0 .373-.35q.129-.23.129-.547 0-.378-.143-.612a.84.84 0 0 0-.41-.346 1.6 1.6 0 0 0-.626-.11zm7.44-3.807h.166v.98h-.078q-.558 0-.981.17a1.9 1.9 0 0 0-1.119 1.202 2.8 2.8 0 0 0-.142.907v1.087q0 .381.078.672.082.285.225.483a1 1 0 0 0 .341.29 1 1 0 0 0 .433.097.92.92 0 0 0 .746-.368q.137-.18.207-.42.074-.239.074-.524 0-.28-.07-.52a1.3 1.3 0 0 0-.202-.42.939.939 0 0 0-.773-.382q-.322 0-.576.152a1.1 1.1 0 0 0-.4.387q-.148.24-.162.507l-.41-.203q.024-.39.166-.718.148-.327.392-.571.248-.245.584-.378.341-.133.755-.133.48 0 .838.184.36.18.594.493.24.313.36.723.119.405.119.856 0 .483-.157.902-.15.42-.442.732a2 2 0 0 1-.7.488q-.409.175-.92.175-.539 0-.967-.203a2.2 2.2 0 0 1-.727-.561 2.5 2.5 0 0 1-.465-.838 3.2 3.2 0 0 1-.161-1.036v-.488q0-.787.216-1.464t.64-1.183q.428-.51 1.059-.792.63-.285 1.46-.285m6.44 2.831v1.128q0 .773-.156 1.321a2.4 2.4 0 0 1-.45.898q-.296.345-.705.51a2.5 2.5 0 0 1-.912.162 2.6 2.6 0 0 1-.746-.101 1.9 1.9 0 0 1-.621-.322 2 2 0 0 1-.47-.562 3 3 0 0 1-.299-.815 5.3 5.3 0 0 1-.101-1.091v-1.128q0-.774.156-1.317.162-.543.456-.888t.704-.502q.411-.16.912-.161.405 0 .746.101.345.101.617.318.276.21.47.552.193.336.294.81.105.47.106 1.087m-1.214 1.294v-1.464a4 4 0 0 0-.046-.673 2 2 0 0 0-.125-.492 1 1 0 0 0-.207-.327.8.8 0 0 0-.285-.189 1 1 0 0 0-.355-.06.9.9 0 0 0-.428.097.8.8 0 0 0-.318.295 1.6 1.6 0 0 0-.198.538q-.064.332-.064.81v1.465q0 .386.041.676.045.291.13.498.087.207.206.34.124.128.286.194.16.06.354.06a.9.9 0 0 0 .428-.097.8.8 0 0 0 .318-.304q.129-.212.193-.548.07-.34.07-.82m3.443-1.39v5.938h-1.22V10.02H19.1zm3.2 1.482v.096q0 .544-.13 1.009a2.5 2.5 0 0 1-.367.805 1.75 1.75 0 0 1-.608.534q-.36.19-.829.19-.46-.001-.8-.176a1.65 1.65 0 0 1-.576-.506 2.8 2.8 0 0 1-.378-.76 5.7 5.7 0 0 1-.207-.953v-.308a6 6 0 0 1 .207-.995q.142-.45.378-.778.234-.33.57-.51.342-.18.797-.18.474 0 .833.18.364.178.613.515.248.335.373.8.123.465.124 1.037m-1.22.096v-.096q0-.331-.06-.613a1.6 1.6 0 0 0-.184-.497.9.9 0 0 0-.322-.336.9.9 0 0 0-.48-.12q-.28 0-.483.092a.85.85 0 0 0-.331.263 1.3 1.3 0 0 0-.203.405 2.5 2.5 0 0 0-.092.511v.764q.042.34.161.613.12.27.35.432.236.162.608.161a.9.9 0 0 0 .479-.124.96.96 0 0 0 .322-.34q.124-.222.18-.507t.055-.608"/></g><defs><clipPath id="a"><path fill="#fff" d="M0 0h24v24H0z"/></clipPath></defs></svg>