<svg xmlns="http://www.w3.org/2000/svg" width="24" height="24"  fill="none"><g clip-path="url(#a)"><g clip-path="url(#b)"><path fill="#fff" d="M8 13.5V20q0 .318-.216.534a.73.73 0 0 1-.534.216.73.73 0 0 1-.535-.216A.73.73 0 0 1 6.5 20V5.404q0-.383.26-.644a.87.87 0 0 1 .644-.26h6.444a.9.9 0 0 1 .572.201.87.87 0 0 1 .316.522l.26 1.277h4.6q.383 0 .644.259.26.258.26.641v7.2a.87.87 0 0 1-.26.641.88.88 0 0 1-.644.259h-4.444a.9.9 0 0 1-.572-.201.87.87 0 0 1-.316-.522l-.26-1.277zm7.65.5H19V8h-4.502a.9.9 0 0 1-.571-.201.87.87 0 0 1-.317-.522L13.35 6H8v6h6.502a.9.9 0 0 1 .571.201.87.87 0 0 1 .317.522z"/></g></g><defs><clipPath id="a"><path fill="#fff" d="M0 0h24v24H0z"/></clipPath><clipPath id="b"><path fill="#fff" d="M0 0h24v24H0z"/></clipPath></defs></svg>