<svg xmlns="http://www.w3.org/2000/svg" width="24" height="24"  fill="none"><g clip-path="url(#a)"><path fill="#fff" d="m12 17.462-3.97 1.703q-.903.387-1.716-.148-.814-.534-.814-1.503V5.308q0-.758.525-1.283T7.308 3.5h9.384q.758 0 1.283.525t.525 1.283v12.206q0 .969-.814 1.503-.813.535-1.717.148zm0-1.662 4.567 1.967q.154.067.293-.029a.3.3 0 0 0 .14-.26V5.309a.3.3 0 0 0-.096-.212.3.3 0 0 0-.212-.096H7.308a.3.3 0 0 0-.212.096.3.3 0 0 0-.096.212v12.17a.3.3 0 0 0 .14.26q.138.096.293.03zM12 5H7h10z"/></g><defs><clipPath id="a"><path fill="#fff" d="M0 0h24v24H0z"/></clipPath></defs></svg>