<svg xmlns="http://www.w3.org/2000/svg" width="24" height="24"  fill="none"><g clip-path="url(#a)"><path fill="#fff" d="M9.52 15.615q-2.562 0-4.339-1.777T3.404 9.5t1.777-4.338T9.52 3.385q2.56 0 4.338 1.777 1.777 1.776 1.777 4.338 0 1.071-.36 2.046a5.7 5.7 0 0 1-.96 1.696l5.755 5.754q.207.208.212.522a.7.7 0 0 1-.212.532.72.72 0 0 1-.527.217.72.72 0 0 1-.527-.217l-5.754-5.754q-.75.62-1.725.97t-2.017.35m0-1.5q1.932 0 3.274-1.341 1.341-1.34 1.341-3.274 0-1.932-1.341-3.274-1.342-1.341-3.274-1.341-1.933 0-3.274 1.341Q4.904 7.568 4.904 9.5q0 1.933 1.342 3.274 1.34 1.342 3.274 1.342"/></g><defs><clipPath id="a"><path fill="#fff" d="M0 0h24v24H0z"/></clipPath></defs></svg>