<svg xmlns="http://www.w3.org/2000/svg" width="24" height="24"  fill="none"><g clip-path="url(#a)"><path fill="#fff" fill-rule="evenodd" d="M18.452 8.852c1.904-1.066 2.541-3.4 1.422-5.214s-3.57-2.42-5.475-1.355L5.552 7.248c-1.29.722-2.049 2.069-1.968 3.491s.989 2.683 2.353 3.268l.942.404-1.327.742c-1.904 1.066-2.541 3.4-1.422 5.214s3.57 2.421 5.475 1.355l8.847-4.965c1.29-.722 2.049-2.068 1.968-3.49s-.989-2.684-2.353-3.269l-.942-.403zm-8.45 5.716a.25.25 0 0 0 .374.217l4.45-2.567a.25.25 0 0 0 0-.433l-4.45-2.567a.25.25 0 0 0-.374.216z" clip-rule="evenodd"/></g><defs><clipPath id="a"><path fill="#fff" d="M0 0h24v24H0z"/></clipPath></defs></svg>