<svg xmlns="http://www.w3.org/2000/svg" width="24" height="24"  fill="none"><g clip-path="url(#a)"><path fill="#fff" fill-rule="evenodd" d="m7.61 15.719.392-.22v-2.24l-.534-.228-.942-.404c-.869-.372-1.4-1.15-1.446-1.974-.047-.823.39-1.642 1.203-2.097L15.13 3.59c1.231-.69 2.785-.27 3.466.833.652 1.058.313 2.452-.879 3.118l-1.327.743-.388.217v2.243l.53.227.942.404c.87.372 1.4 1.15 1.446 1.974.047.823-.39 1.642-1.203 2.097h-.002L8.87 20.412c-1.232.689-2.785.27-3.466-.833-.652-1.058-.313-2.451.88-3.118zm1.993 6.002c-1.905 1.066-4.356.46-5.475-1.355-1.057-1.713-.548-3.89 1.117-5.025q.149-.101.305-.19l1.327-.741-.942-.404a4 4 0 0 1-.709-.391c-.963-.666-1.578-1.718-1.644-2.877-.08-1.422.68-2.77 1.968-3.49l8.847-4.966c1.905-1.066 4.356-.46 5.475 1.355 1.057 1.713.548 3.89-1.117 5.025q-.148.1-.305.19l-1.327.742.942.403q.38.164.71.392c.962.666 1.577 1.717 1.643 2.876.08 1.423-.679 2.77-1.968 3.49zM10 14.567a.25.25 0 0 0 .374.217l4.45-2.567a.25.25 0 0 0 0-.433l-4.45-2.567a.25.25 0 0 0-.374.216z" clip-rule="evenodd"/></g><defs><clipPath id="a"><path fill="#fff" d="M0 0h24v24H0z"/></clipPath></defs></svg>