<svg xmlns="http://www.w3.org/2000/svg" width="24" height="24"  fill="none"><g clip-path="url(#a)"><path fill="#fff" d="M14.865 19.5a.73.73 0 0 1-.535-.216.73.73 0 0 1-.215-.534q0-.32.215-.535a.73.73 0 0 1 .534-.215h2.1l-2.82-2.821a.71.71 0 0 1-.22-.53.75.75 0 0 1 .235-.54.74.74 0 0 1 .534-.232q.303 0 .535.232l2.771 2.787v-2.002q0-.318.216-.534a.73.73 0 0 1 .535-.216q.318 0 .534.216a.73.73 0 0 1 .215.534v3.702q0 .383-.26.644a.87.87 0 0 1-.644.26zm-10.143-.223a.72.72 0 0 1-.217-.527q0-.31.217-.527L16.945 6h-2.08a.73.73 0 0 1-.535-.216.73.73 0 0 1-.215-.534q0-.32.215-.535a.73.73 0 0 1 .534-.215h3.731q.384 0 .644.26t.26.644v3.702q0 .318-.215.534a.73.73 0 0 1-.535.216.73.73 0 0 1-.534-.216.73.73 0 0 1-.216-.534V7.054L5.776 19.277a.73.73 0 0 1-.522.212.7.7 0 0 1-.532-.212m-.015-13.51a.7.7 0 0 1-.203-.522.73.73 0 0 1 .21-.522.7.7 0 0 1 .515-.207q.309 0 .532.207l4.046 4.04q.207.209.215.51a.7.7 0 0 1-.215.527.7.7 0 0 1-.52.206.7.7 0 0 1-.524-.208z"/></g><defs><clipPath id="a"><path fill="#fff" d="M0 0h24v24H0z"/></clipPath></defs></svg>