<svg xmlns="http://www.w3.org/2000/svg" width="24" height="24"  fill="none"><g clip-path="url(#a)"><path fill="#fff" d="M12.1 21.5a9.3 9.3 0 0 1-3.74-.756 9.7 9.7 0 0 1-3.046-2.057 9.7 9.7 0 0 1-2.057-3.046 9.3 9.3 0 0 1-.757-3.74q0-3.285 2.003-5.851 2.003-2.567 5.18-3.366a10.5 10.5 0 0 0 .496 4.669 10.25 10.25 0 0 0 2.49 3.979 10.25 10.25 0 0 0 3.979 2.49q2.261.772 4.67.496-.785 3.177-3.36 5.18Q15.386 21.5 12.1 21.5"/></g><defs><clipPath id="a"><path fill="#fff" d="M0 0h24v24H0z"/></clipPath></defs></svg>