<svg xmlns="http://www.w3.org/2000/svg" width="24" height="24"  fill="none"><g clip-path="url(#a)"><path fill="#fff" d="M12.1 21.5a9.3 9.3 0 0 1-3.74-.756 9.7 9.7 0 0 1-3.046-2.057 9.7 9.7 0 0 1-2.057-3.045A9.3 9.3 0 0 1 2.5 11.9q0-3.285 2.003-5.851 2.003-2.567 5.18-3.366a10.5 10.5 0 0 0 .496 4.669 10.25 10.25 0 0 0 2.49 3.979 10.25 10.25 0 0 0 3.979 2.49q2.261.772 4.67.496-.785 3.177-3.36 5.18Q15.386 21.5 12.1 21.5m0-1.5a7.9 7.9 0 0 0 4.075-1.1 7.9 7.9 0 0 0 2.95-3.027 12.4 12.4 0 0 1-4.075-1.089 11.9 11.9 0 0 1-3.45-2.416 12.1 12.1 0 0 1-2.425-3.447A11.8 11.8 0 0 1 8.1 4.851a7.8 7.8 0 0 0-3.012 2.962A8.05 8.05 0 0 0 4 11.901q0 3.375 2.363 5.737t5.737 2.363"/></g><defs><clipPath id="a"><path fill="#fff" d="M0 0h24v24H0z"/></clipPath></defs></svg>