<svg xmlns="http://www.w3.org/2000/svg" width="24" height="24"  fill="none"><g clip-path="url(#a)"><path fill="#fff" d="M4.25 17.5a.73.73 0 0 1-.534-.216.73.73 0 0 1-.216-.534q0-.32.216-.535A.73.73 0 0 1 4.25 16h3.875q.319 0 .534.216a.73.73 0 0 1 .216.534q0 .32-.216.535a.73.73 0 0 1-.534.215zm0-4.75a.73.73 0 0 1-.534-.216A.73.73 0 0 1 3.5 12q0-.32.216-.534a.73.73 0 0 1 .534-.216h9.683q.318 0 .534.216a.73.73 0 0 1 .216.534q0 .32-.216.534a.73.73 0 0 1-.534.216zm0-4.75a.73.73 0 0 1-.534-.216.73.73 0 0 1-.216-.534q0-.32.216-.535A.73.73 0 0 1 4.25 6.5h15.5q.318 0 .534.216a.73.73 0 0 1 .216.534q0 .32-.216.535A.73.73 0 0 1 19.75 8z"/></g><defs><clipPath id="a"><path fill="#fff" d="M0 0h24v24H0z"/></clipPath></defs></svg>