<svg xmlns="http://www.w3.org/2000/svg" width="24" height="24"  fill="none"><g clip-path="url(#a)"><path fill="#fff" fill-rule="evenodd" d="M6.5 2A1.5 1.5 0 0 0 5 3.5V4H3a1 1 0 0 0-1 1v3a5 5 0 0 0 4.212 4.938A7 7 0 0 0 11 15.929V18.5H9.5A1.5 1.5 0 0 0 8 20v2h8v-2a1.5 1.5 0 0 0-1.5-1.5H13v-2.57a7 7 0 0 0 4.788-2.992A5 5 0 0 0 22 8V5a1 1 0 0 0-1-1h-2v-.5A1.5 1.5 0 0 0 17.5 2zM19 5.25V9c0 .844-.15 1.654-.424 2.403A3.75 3.75 0 0 0 20.75 8V5.25zM5.424 11.403A7 7 0 0 1 5 9V5.25H3.25V8c0 1.508.89 2.808 2.174 3.403" clip-rule="evenodd"/></g><defs><clipPath id="a"><path fill="#fff" d="M0 0h24v24H0z"/></clipPath></defs></svg>