<svg xmlns="http://www.w3.org/2000/svg" width="24" height="24"  fill="none"><g clip-path="url(#a)"><path fill="#fff" fill-rule="evenodd" d="M6.5 3.277h11v5.5a5.5 5.5 0 1 1-11 0zm-1.5 0a1.5 1.5 0 0 1 1.5-1.5h11a1.5 1.5 0 0 1 1.5 1.5v.5h2a1 1 0 0 1 1 1v3a5 5 0 0 1-4.212 4.938A7 7 0 0 1 13 15.706v1.571h1.5a1.5 1.5 0 0 1 1.5 1.5v3H8v-3a1.5 1.5 0 0 1 1.5-1.5H11v-1.57a7 7 0 0 1-4.788-2.992A5 5 0 0 1 2 7.777v-3a1 1 0 0 1 1-1h2zm0 1.75H3.25v2.75c0 1.508.89 2.808 2.174 3.403A7 7 0 0 1 5 8.777zm13.576 6.153a3.75 3.75 0 0 0 2.174-3.403v-2.75H19v3.75c0 .844-.15 1.654-.424 2.403M9.5 20.277v-1.5h5v1.5z" clip-rule="evenodd"/></g><defs><clipPath id="a"><path fill="#fff" d="M0 0h24v24H0z"/></clipPath></defs></svg>