<svg xmlns="http://www.w3.org/2000/svg" width="24" height="24"  fill="none"><g clip-path="url(#a)"><path fill="#fff" d="M7.495 16.706V7.3q0-.285.206-.491a.67.67 0 0 1 .494-.206q.288 0 .494.206a.67.67 0 0 1 .205.491v9.406a.67.67 0 0 1-.206.494.68.68 0 0 1-.494.203.68.68 0 0 1-.492-.203.67.67 0 0 1-.207-.494m3.807 3.902V3.398q0-.285.203-.491A.67.67 0 0 1 12 2.7q.291 0 .497.206a.67.67 0 0 1 .205.491v17.21a.67.67 0 0 1-.206.494.68.68 0 0 1-.496.203.67.67 0 0 1-.494-.203.67.67 0 0 1-.203-.494m-7.6-7.738V11.1q0-.283.205-.489a.67.67 0 0 1 .494-.205q.288 0 .494.206.205.205.205.49v1.768q0 .291-.206.497a.67.67 0 0 1-.491.205.68.68 0 0 1-.497-.205.68.68 0 0 1-.205-.497m11.394 3.836V7.3q0-.285.203-.491a.67.67 0 0 1 .495-.206q.292 0 .496.206a.67.67 0 0 1 .205.491v9.406a.67.67 0 0 1-.205.494.68.68 0 0 1-.497.203.67.67 0 0 1-.494-.203.67.67 0 0 1-.203-.494m3.802-3.836V11.1q0-.283.206-.489a.67.67 0 0 1 .494-.205q.289 0 .494.206.205.205.205.49v1.768q0 .291-.206.497a.67.67 0 0 1-.491.205.68.68 0 0 1-.497-.205.68.68 0 0 1-.205-.497"/></g><defs><clipPath id="a"><path fill="#fff" d="M0 0h24v24H0z"/></clipPath></defs></svg>