<svg xmlns="http://www.w3.org/2000/svg" width="24" height="24"  fill="none"><g clip-path="url(#a)"><path fill="#fff" d="M4.308 19.5q-.758 0-1.283-.525a1.75 1.75 0 0 1-.525-1.283V6.308q0-.758.525-1.283T4.308 4.5h15.384q.758 0 1.283.525t.525 1.283v11.384q0 .758-.525 1.283t-1.283.525zm0-1.5h15.384a.3.3 0 0 0 .212-.096.3.3 0 0 0 .096-.212V6.308a.3.3 0 0 0-.096-.212.3.3 0 0 0-.212-.096H4.308a.3.3 0 0 0-.212.096.3.3 0 0 0-.096.212v11.384q0 .116.096.212a.3.3 0 0 0 .212.096M7.5 10.5h9q.52 0 .884-.366.366-.365.366-.884 0-.52-.366-.884A1.2 1.2 0 0 0 16.5 8h-9q-.519 0-.885.366a1.2 1.2 0 0 0-.365.884q0 .52.365.884.366.366.885.366"/></g><defs><clipPath id="a"><path fill="#fff" d="M0 0h24v24H0z"/></clipPath></defs></svg>