<svg xmlns="http://www.w3.org/2000/svg" width="24" height="24"  fill="none"><g clip-path="url(#a)"><path fill="#fff" d="M2.5 17.654V5.577q0-.745.531-1.276a1.74 1.74 0 0 1 1.277-.531h15.384q.746 0 1.277.53.531.532.531 1.277v12.077h1.25q.318 0 .534.216a.73.73 0 0 1 .216.534q0 .32-.216.535a.73.73 0 0 1-.534.215H1.25a.73.73 0 0 1-.534-.216.73.73 0 0 1-.216-.534q0-.32.216-.535a.73.73 0 0 1 .534-.215zm7.942 0h3.116a.42.42 0 0 0 .31-.133.424.424 0 0 0 0-.619.42.42 0 0 0-.31-.133h-3.116a.42.42 0 0 0-.31.133.424.424 0 0 0 0 .62.42.42 0 0 0 .31.132"/></g><defs><clipPath id="a"><path fill="#fff" d="M0 0h24v24H0z"/></clipPath></defs></svg>