<svg xmlns="http://www.w3.org/2000/svg" width="24" height="24"  fill="none"><g clip-path="url(#a)"><path fill="#fff" d="M5.308 17.5q-.758 0-1.283-.525a1.75 1.75 0 0 1-.525-1.283V8.308q0-.758.525-1.283T5.308 6.5h13.384q.758 0 1.283.525t.525 1.283v7.384q0 .758-.525 1.283t-1.283.525zm0-1.5h13.384a.3.3 0 0 0 .212-.096.3.3 0 0 0 .096-.212V8.308a.3.3 0 0 0-.096-.212.3.3 0 0 0-.212-.096H5.308a.3.3 0 0 0-.212.096.3.3 0 0 0-.096.212v7.384q0 .116.096.212a.3.3 0 0 0 .212.096"/></g><defs><clipPath id="a"><path fill="#fff" d="M0 0h24v24H0z"/></clipPath></defs></svg>