<svg xmlns="http://www.w3.org/2000/svg" width="24" height="24"  fill="none"><g clip-path="url(#a)"><path fill="#fff" fill-rule="evenodd" d="m14 1.777-1.5.886-5.195 3.07A8.76 8.76 0 0 0 3 13.277a8.5 8.5 0 0 0 17 0V.777l-1.5 1-3 2-1.5 1zM8.068 7.025l4.432-2.62V7.58l2.332-1.555L18.5 3.58v9.697a7 7 0 1 1-14 0 7.26 7.26 0 0 1 3.568-6.252M9 14.777c0-1.226.693-2.346 1.789-2.894L15 9.777v5a3 3 0 1 1-6 0" clip-rule="evenodd"/></g><defs><clipPath id="a"><path fill="#fff" d="M0 0h24v24H0z"/></clipPath></defs></svg>