<svg xmlns="http://www.w3.org/2000/svg" width="24" height="24"  fill="none"><g clip-path="url(#a)"><path fill="#fff" d="M8.25 22.557a1.74 1.74 0 0 1-1.278-.531 1.74 1.74 0 0 1-.53-1.277V3.25q0-.746.53-1.277a1.74 1.74 0 0 1 1.277-.53h7.5q.746 0 1.277.53.53.531.53 1.277v17.5q0 .746-.53 1.277a1.74 1.74 0 0 1-1.277.53zm3.748-12.808q1.146 0 1.948-.802A2.65 2.65 0 0 0 14.75 7q0-1.145-.802-1.948A2.65 2.65 0 0 0 12 4.25q-1.145 0-1.948.802a2.65 2.65 0 0 0-.803 1.947q0 1.146.802 1.948a2.65 2.65 0 0 0 1.947.803m.001-1.5q-.521 0-.885-.364a1.2 1.2 0 0 1-.365-.886q0-.521.365-.885.364-.365.885-.365.522 0 .886.365.364.364.364.885 0 .522-.364.886a1.2 1.2 0 0 1-.886.364m-1.902 5.558a.87.87 0 0 0 .643-.26.88.88 0 0 0 .26-.646.87.87 0 0 0-.261-.643.88.88 0 0 0-.645-.259.87.87 0 0 0-.644.26.88.88 0 0 0-.259.646.87.87 0 0 0 .26.643.88.88 0 0 0 .646.259m3.808 0a.87.87 0 0 0 .643-.26.88.88 0 0 0 .259-.646.87.87 0 0 0-.26-.643.88.88 0 0 0-.646-.259.87.87 0 0 0-.643.26.88.88 0 0 0-.259.646.87.87 0 0 0 .26.643.88.88 0 0 0 .646.259m-3.808 3a.87.87 0 0 0 .643-.26.88.88 0 0 0 .26-.646.87.87 0 0 0-.261-.643.88.88 0 0 0-.645-.259.87.87 0 0 0-.644.26.88.88 0 0 0-.259.646.87.87 0 0 0 .26.643.88.88 0 0 0 .646.259m3.808 0a.87.87 0 0 0 .643-.26.88.88 0 0 0 .259-.646.87.87 0 0 0-.26-.643.88.88 0 0 0-.646-.259.87.87 0 0 0-.643.26.88.88 0 0 0-.259.646.87.87 0 0 0 .26.643.88.88 0 0 0 .646.259m-3.808 3a.87.87 0 0 0 .643-.26.88.88 0 0 0 .26-.646.87.87 0 0 0-.261-.643.88.88 0 0 0-.645-.259.87.87 0 0 0-.644.26.88.88 0 0 0-.259.646.87.87 0 0 0 .26.643.88.88 0 0 0 .646.259m3.808 0a.87.87 0 0 0 .643-.26.88.88 0 0 0 .259-.646.87.87 0 0 0-.26-.643.88.88 0 0 0-.646-.259.87.87 0 0 0-.643.26.88.88 0 0 0-.259.646.87.87 0 0 0 .26.643.88.88 0 0 0 .646.259"/></g><defs><clipPath id="a"><path fill="#fff" d="M0 0h24v24H0z"/></clipPath></defs></svg>