<svg xmlns="http://www.w3.org/2000/svg" width="24" height="24"  fill="none"><g clip-path="url(#a)"><path fill="#fff" d="M16.808 9.25h4q.318 0 .534.215a.73.73 0 0 1 .216.534q0 .32-.216.535a.73.73 0 0 1-.534.215h-4a.73.73 0 0 1-.535-.216.73.73 0 0 1-.215-.534q0-.319.215-.534a.73.73 0 0 1 .535-.216M9 11.69q-1.444 0-2.472-1.028T5.5 8.191 6.528 5.72Q7.557 4.69 9 4.69t2.472 1.029Q12.5 6.748 12.5 8.19t-1.028 2.472T9 11.691m-7.5 6.097v-.704q0-.735.399-1.36a2.66 2.66 0 0 1 1.067-.963 14.5 14.5 0 0 1 2.99-1.09 12.95 12.95 0 0 1 6.087 0q1.509.363 2.992 1.09.667.336 1.066.962t.399 1.36v.705q0 .632-.443 1.076a1.47 1.47 0 0 1-1.076.443H3.019q-.633 0-1.076-.443a1.47 1.47 0 0 1-.443-1.076m1.5.019h12v-.723a1 1 0 0 0-.176-.563 1.33 1.33 0 0 0-.478-.422 13 13 0 0 0-2.635-.964 11.4 11.4 0 0 0-5.422 0q-1.343.328-2.635.964-.301.165-.478.422a1 1 0 0 0-.176.563zm6-7.616q.825 0 1.412-.587Q11 9.016 11 8.19t-.588-1.412A1.93 1.93 0 0 0 9 6.19q-.825 0-1.412.588A1.93 1.93 0 0 0 7 8.19q0 .825.588 1.413.587.587 1.412.587"/></g><defs><clipPath id="a"><path fill="#fff" d="M0 0h24v24H0z"/></clipPath></defs></svg>