<svg xmlns="http://www.w3.org/2000/svg" width="24" height="24"  fill="none"><g clip-path="url(#a)"><path fill="#fff" d="M12 11.691q-1.448 0-2.474-1.026A3.37 3.37 0 0 1 8.5 8.191q0-1.448 1.026-2.474A3.37 3.37 0 0 1 12 4.691q1.448 0 2.474 1.026A3.37 3.37 0 0 1 15.5 8.191q0 1.449-1.026 2.474A3.37 3.37 0 0 1 12 11.691m-7.5 6.097v-.704q0-.735.399-1.36a2.66 2.66 0 0 1 1.066-.963 14.5 14.5 0 0 1 2.992-1.09 12.95 12.95 0 0 1 6.086 0q1.509.363 2.992 1.09.667.336 1.066.962t.399 1.36v.705q0 .632-.443 1.076a1.47 1.47 0 0 1-1.076.443H6.019q-.632 0-1.076-.443a1.47 1.47 0 0 1-.443-1.076"/></g><defs><clipPath id="a"><path fill="#fff" d="M0 0h24v24H0z"/></clipPath></defs></svg>