<svg width="112" height="26" viewBox="0 0 112 26"  fill="none" xmlns="http://www.w3.org/2000/svg">
<path d="M17.5096 25.0887C17.5096 25.0887 28.4915 25.0887 31.2155 24.3634C32.7492 23.9524 33.9027 22.7677 34.3075 21.305C35.056 18.6214 35.056 12.9762 35.056 12.9762C35.056 12.9762 35.056 7.36725 34.3075 4.70783C33.9027 3.20888 32.7492 2.0484 31.2155 1.64949C28.4915 0.912106 17.5096 0.912109 17.5096 0.912109C17.5096 0.912109 6.5523 0.912106 3.84058 1.64949C2.33135 2.0484 1.1534 3.20888 0.723943 4.70783C2.06106e-07 7.36725 0 12.9762 0 12.9762C0 12.9762 2.06106e-07 18.6214 0.723943 21.305C1.1534 22.7677 2.33135 23.9524 3.84058 24.3634C6.5523 25.0887 17.5096 25.0887 17.5096 25.0887Z" fill="#FF0033"/>
<path d="M22.9666 13.0008L13.9004 7.86328V18.1383L22.9666 13.0008Z" fill="white"/>
<path d="M44.8913 23.7575V17.1573L49.0859 3.44922H45.955L44.3594 9.67469C43.9967 11.1011 43.6704 12.588 43.4286 13.966H43.2352C43.1022 12.7572 42.7154 11.1736 42.3286 9.65051L40.7813 3.44922H37.6504L41.7846 17.1573V23.7575H44.8913Z" fill="white"/>
<path d="M53.3086 8.52734C49.6459 8.52734 48.3887 10.6428 48.3887 15.2V17.3638C48.3887 21.4497 49.1744 24.0124 53.2361 24.0124C57.2373 24.0124 58.0956 21.5706 58.0956 17.3638V15.2C58.0956 11.1263 57.2736 8.52734 53.3086 8.52734ZM54.868 18.7056C54.868 20.6881 54.5174 21.9332 53.2482 21.9332C52.0031 21.9332 51.6525 20.676 51.6525 18.7056V13.822C51.6525 12.1297 51.8943 10.6186 53.2482 10.6186C54.6746 10.6186 54.868 12.2143 54.868 13.822V18.7056Z" fill="white"/>
<path d="M63.1839 23.9872C64.9488 23.9872 66.0488 23.2498 66.9555 21.9201H67.0884L67.2214 23.7575H69.6269V8.81641H66.4357V20.82C66.0971 21.4124 65.3113 21.8475 64.574 21.8475C63.6432 21.8475 63.3532 21.1101 63.3532 19.8771V8.81641H60.1738V20.0222C60.1738 22.4519 60.8751 23.9872 63.1839 23.9872Z" fill="white"/>
<path d="M75.9432 23.7575V5.92732H79.618V3.44922H69.1133V5.92732H72.7881V23.7575H75.9432Z" fill="white"/>
<path d="M82.0432 23.9891C83.8081 23.9891 84.9081 23.2517 85.8147 21.922H85.9477L86.0807 23.7594H88.4862V8.81836H85.2949V20.822C84.9565 21.4143 84.1707 21.8495 83.4333 21.8495C82.5025 21.8495 82.2124 21.1121 82.2124 19.8791V8.81836H79.0332V20.0242C79.0332 22.4539 79.7343 23.9891 82.0432 23.9891Z" fill="white"/>
<path d="M97.5184 8.49098C95.9711 8.49098 94.859 9.16793 94.1216 10.268H93.9644C94.0611 8.81737 94.1337 7.58436 94.1337 6.60521V2.65234H91.0511L91.0391 15.6351L91.0511 23.7584H93.7347L93.9644 22.3078H94.049C94.7622 23.287 95.8623 23.9035 97.325 23.9035C99.7547 23.9035 100.794 21.8122 100.794 17.3637V15.0549C100.794 10.8966 100.323 8.49098 97.5184 8.49098ZM97.6272 17.3637C97.6272 20.144 97.2162 21.8001 95.9227 21.8001C95.3183 21.8001 94.4842 21.51 94.1095 20.966V12.0812C94.4359 11.235 95.1612 10.6185 95.9711 10.6185C97.2766 10.6185 97.6272 12.2021 97.6272 15.0911V17.3637Z" fill="white"/>
<path d="M111.999 14.8128C111.999 11.2106 111.636 8.53906 107.49 8.53906C103.585 8.53906 102.715 11.138 102.715 14.9579V17.5811C102.715 21.3042 103.513 24.012 107.393 24.012C110.463 24.012 112.047 22.4768 111.866 19.5031L109.146 19.358C109.11 21.1954 108.686 21.9449 107.466 21.9449C105.93 21.9449 105.858 20.4822 105.858 18.3063V17.2909H111.999V14.8128ZM107.417 10.5457C108.892 10.5457 109.001 11.9359 109.001 14.293V15.514H105.858V14.293C105.858 11.96 105.954 10.5457 107.417 10.5457Z" fill="white"/>
</svg>
